G04 #@! TF.GenerationSoftware,KiCad,Pcbnew,(6.0.9)*
G04 #@! TF.CreationDate,2022-11-05T01:50:54+09:00*
G04 #@! TF.ProjectId,prototype-projector-device,70726f74-6f74-4797-9065-2d70726f6a65,rev?*
G04 #@! TF.SameCoordinates,PX5f5e100PY8f0d180*
G04 #@! TF.FileFunction,Legend,Bot*
G04 #@! TF.FilePolarity,Positive*
%FSLAX46Y46*%
G04 Gerber Fmt 4.6, Leading zero omitted, Abs format (unit mm)*
G04 Created by KiCad (PCBNEW (6.0.9)) date 2022-11-05 01:50:54*
%MOMM*%
%LPD*%
G01*
G04 APERTURE LIST*
%ADD10C,0.200000*%
G04 APERTURE END LIST*
D10*
X35953571Y27240477D02*
X35953571Y27573810D01*
X36477380Y27573810D02*
X35477380Y27573810D01*
X35477380Y27097620D01*
X36477380Y26716667D02*
X35810714Y26716667D01*
X35477380Y26716667D02*
X35525000Y26764286D01*
X35572619Y26716667D01*
X35525000Y26669048D01*
X35477380Y26716667D01*
X35572619Y26716667D01*
X36477380Y26335715D02*
X35810714Y25811905D01*
X35810714Y26335715D02*
X36477380Y25811905D01*
X36429761Y25050000D02*
X36477380Y25145239D01*
X36477380Y25335715D01*
X36429761Y25430953D01*
X36334523Y25478572D01*
X35953571Y25478572D01*
X35858333Y25430953D01*
X35810714Y25335715D01*
X35810714Y25145239D01*
X35858333Y25050000D01*
X35953571Y25002381D01*
X36048809Y25002381D01*
X36144047Y25478572D01*
X36477380Y24145239D02*
X35477380Y24145239D01*
X36429761Y24145239D02*
X36477380Y24240477D01*
X36477380Y24430953D01*
X36429761Y24526191D01*
X36382142Y24573810D01*
X36286904Y24621429D01*
X36001190Y24621429D01*
X35905952Y24573810D01*
X35858333Y24526191D01*
X35810714Y24430953D01*
X35810714Y24240477D01*
X35858333Y24145239D01*
X36429761Y22954762D02*
X36477380Y22811905D01*
X36477380Y22573810D01*
X36429761Y22478572D01*
X36382142Y22430953D01*
X36286904Y22383334D01*
X36191666Y22383334D01*
X36096428Y22430953D01*
X36048809Y22478572D01*
X36001190Y22573810D01*
X35953571Y22764286D01*
X35905952Y22859524D01*
X35858333Y22907143D01*
X35763095Y22954762D01*
X35667857Y22954762D01*
X35572619Y22907143D01*
X35525000Y22859524D01*
X35477380Y22764286D01*
X35477380Y22526191D01*
X35525000Y22383334D01*
X35810714Y22097620D02*
X35810714Y21716667D01*
X35477380Y21954762D02*
X36334523Y21954762D01*
X36429761Y21907143D01*
X36477380Y21811905D01*
X36477380Y21716667D01*
X36477380Y20954762D02*
X35953571Y20954762D01*
X35858333Y21002381D01*
X35810714Y21097620D01*
X35810714Y21288096D01*
X35858333Y21383334D01*
X36429761Y20954762D02*
X36477380Y21050000D01*
X36477380Y21288096D01*
X36429761Y21383334D01*
X36334523Y21430953D01*
X36239285Y21430953D01*
X36144047Y21383334D01*
X36096428Y21288096D01*
X36096428Y21050000D01*
X36048809Y20954762D01*
X36477380Y20478572D02*
X35810714Y20478572D01*
X36001190Y20478572D02*
X35905952Y20430953D01*
X35858333Y20383334D01*
X35810714Y20288096D01*
X35810714Y20192858D01*
X36429761Y19907143D02*
X36477380Y19811905D01*
X36477380Y19621429D01*
X36429761Y19526191D01*
X36334523Y19478572D01*
X36286904Y19478572D01*
X36191666Y19526191D01*
X36144047Y19621429D01*
X36144047Y19764286D01*
X36096428Y19859524D01*
X36001190Y19907143D01*
X35953571Y19907143D01*
X35858333Y19859524D01*
X35810714Y19764286D01*
X35810714Y19621429D01*
X35858333Y19526191D01*
X35953571Y17954762D02*
X36001190Y17811905D01*
X36048809Y17764286D01*
X36144047Y17716667D01*
X36286904Y17716667D01*
X36382142Y17764286D01*
X36429761Y17811905D01*
X36477380Y17907143D01*
X36477380Y18288096D01*
X35477380Y18288096D01*
X35477380Y17954762D01*
X35525000Y17859524D01*
X35572619Y17811905D01*
X35667857Y17764286D01*
X35763095Y17764286D01*
X35858333Y17811905D01*
X35905952Y17859524D01*
X35953571Y17954762D01*
X35953571Y18288096D01*
X36477380Y17145239D02*
X36429761Y17240477D01*
X36382142Y17288096D01*
X36286904Y17335715D01*
X36001190Y17335715D01*
X35905952Y17288096D01*
X35858333Y17240477D01*
X35810714Y17145239D01*
X35810714Y17002381D01*
X35858333Y16907143D01*
X35905952Y16859524D01*
X36001190Y16811905D01*
X36286904Y16811905D01*
X36382142Y16859524D01*
X36429761Y16907143D01*
X36477380Y17002381D01*
X36477380Y17145239D01*
X36477380Y15954762D02*
X35953571Y15954762D01*
X35858333Y16002381D01*
X35810714Y16097620D01*
X35810714Y16288096D01*
X35858333Y16383334D01*
X36429761Y15954762D02*
X36477380Y16050000D01*
X36477380Y16288096D01*
X36429761Y16383334D01*
X36334523Y16430953D01*
X36239285Y16430953D01*
X36144047Y16383334D01*
X36096428Y16288096D01*
X36096428Y16050000D01*
X36048809Y15954762D01*
X36477380Y15478572D02*
X35810714Y15478572D01*
X36001190Y15478572D02*
X35905952Y15430953D01*
X35858333Y15383334D01*
X35810714Y15288096D01*
X35810714Y15192858D01*
X36477380Y14430953D02*
X35477380Y14430953D01*
X36429761Y14430953D02*
X36477380Y14526191D01*
X36477380Y14716667D01*
X36429761Y14811905D01*
X36382142Y14859524D01*
X36286904Y14907143D01*
X36001190Y14907143D01*
X35905952Y14859524D01*
X35858333Y14811905D01*
X35810714Y14716667D01*
X35810714Y14526191D01*
X35858333Y14430953D01*
X35810714Y13288096D02*
X36477380Y13050000D01*
X35810714Y12811905D01*
X35477380Y12240477D02*
X35477380Y12145239D01*
X35525000Y12050000D01*
X35572619Y12002381D01*
X35667857Y11954762D01*
X35858333Y11907143D01*
X36096428Y11907143D01*
X36286904Y11954762D01*
X36382142Y12002381D01*
X36429761Y12050000D01*
X36477380Y12145239D01*
X36477380Y12240477D01*
X36429761Y12335715D01*
X36382142Y12383334D01*
X36286904Y12430953D01*
X36096428Y12478572D01*
X35858333Y12478572D01*
X35667857Y12430953D01*
X35572619Y12383334D01*
X35525000Y12335715D01*
X35477380Y12240477D01*
X36382142Y11478572D02*
X36429761Y11430953D01*
X36477380Y11478572D01*
X36429761Y11526191D01*
X36382142Y11478572D01*
X36477380Y11478572D01*
X36477380Y10478572D02*
X36477380Y11050000D01*
X36477380Y10764286D02*
X35477380Y10764286D01*
X35620238Y10859524D01*
X35715476Y10954762D01*
X35763095Y11050000D01*
X38087380Y28097620D02*
X37087380Y28097620D01*
X37468333Y28097620D02*
X37420714Y28002381D01*
X37420714Y27811905D01*
X37468333Y27716667D01*
X37515952Y27669048D01*
X37611190Y27621429D01*
X37896904Y27621429D01*
X37992142Y27669048D01*
X38039761Y27716667D01*
X38087380Y27811905D01*
X38087380Y28002381D01*
X38039761Y28097620D01*
X37420714Y27288096D02*
X38087380Y27050000D01*
X37420714Y26811905D02*
X38087380Y27050000D01*
X38325476Y27145239D01*
X38373095Y27192858D01*
X38420714Y27288096D01*
X37087380Y25811905D02*
X37087380Y25240477D01*
X38087380Y25526191D02*
X37087380Y25526191D01*
X38087380Y24764286D02*
X38039761Y24859524D01*
X37992142Y24907143D01*
X37896904Y24954762D01*
X37611190Y24954762D01*
X37515952Y24907143D01*
X37468333Y24859524D01*
X37420714Y24764286D01*
X37420714Y24621429D01*
X37468333Y24526191D01*
X37515952Y24478572D01*
X37611190Y24430953D01*
X37896904Y24430953D01*
X37992142Y24478572D01*
X38039761Y24526191D01*
X38087380Y24621429D01*
X38087380Y24764286D01*
X38087380Y24002381D02*
X37087380Y24002381D01*
X37706428Y23907143D02*
X38087380Y23621429D01*
X37420714Y23621429D02*
X37801666Y24002381D01*
X37420714Y23288096D02*
X38087380Y23050000D01*
X37420714Y22811905D02*
X38087380Y23050000D01*
X38325476Y23145239D01*
X38373095Y23192858D01*
X38420714Y23288096D01*
X38087380Y22288096D02*
X38039761Y22383334D01*
X37992142Y22430953D01*
X37896904Y22478572D01*
X37611190Y22478572D01*
X37515952Y22430953D01*
X37468333Y22383334D01*
X37420714Y22288096D01*
X37420714Y22145239D01*
X37468333Y22050000D01*
X37515952Y22002381D01*
X37611190Y21954762D01*
X37896904Y21954762D01*
X37992142Y22002381D01*
X38039761Y22050000D01*
X38087380Y22145239D01*
X38087380Y22288096D01*
X37087380Y21669048D02*
X37087380Y21097620D01*
X38087380Y21383334D02*
X37087380Y21383334D01*
X38039761Y20383334D02*
X38087380Y20478572D01*
X38087380Y20669048D01*
X38039761Y20764286D01*
X37944523Y20811905D01*
X37563571Y20811905D01*
X37468333Y20764286D01*
X37420714Y20669048D01*
X37420714Y20478572D01*
X37468333Y20383334D01*
X37563571Y20335715D01*
X37658809Y20335715D01*
X37754047Y20811905D01*
X38039761Y19478572D02*
X38087380Y19573810D01*
X38087380Y19764286D01*
X38039761Y19859524D01*
X37992142Y19907143D01*
X37896904Y19954762D01*
X37611190Y19954762D01*
X37515952Y19907143D01*
X37468333Y19859524D01*
X37420714Y19764286D01*
X37420714Y19573810D01*
X37468333Y19478572D01*
X38087380Y19050000D02*
X37087380Y19050000D01*
X38087380Y18621429D02*
X37563571Y18621429D01*
X37468333Y18669048D01*
X37420714Y18764286D01*
X37420714Y18907143D01*
X37468333Y19002381D01*
X37515952Y19050000D01*
X37801666Y17430953D02*
X37801666Y16954762D01*
X38087380Y17526191D02*
X37087380Y17192858D01*
X38087380Y16859524D01*
X38039761Y16573810D02*
X38087380Y16478572D01*
X38087380Y16288096D01*
X38039761Y16192858D01*
X37944523Y16145239D01*
X37896904Y16145239D01*
X37801666Y16192858D01*
X37754047Y16288096D01*
X37754047Y16430953D01*
X37706428Y16526191D01*
X37611190Y16573810D01*
X37563571Y16573810D01*
X37468333Y16526191D01*
X37420714Y16430953D01*
X37420714Y16288096D01*
X37468333Y16192858D01*
X37420714Y15859524D02*
X37420714Y15478572D01*
X37087380Y15716667D02*
X37944523Y15716667D01*
X38039761Y15669048D01*
X38087380Y15573810D01*
X38087380Y15478572D01*
X38087380Y15145239D02*
X37420714Y15145239D01*
X37611190Y15145239D02*
X37515952Y15097620D01*
X37468333Y15050000D01*
X37420714Y14954762D01*
X37420714Y14859524D01*
X38087380Y14383334D02*
X38039761Y14478572D01*
X37992142Y14526191D01*
X37896904Y14573810D01*
X37611190Y14573810D01*
X37515952Y14526191D01*
X37468333Y14478572D01*
X37420714Y14383334D01*
X37420714Y14240477D01*
X37468333Y14145239D01*
X37515952Y14097620D01*
X37611190Y14050000D01*
X37896904Y14050000D01*
X37992142Y14097620D01*
X38039761Y14145239D01*
X38087380Y14240477D01*
X38087380Y14383334D01*
X37992142Y12288096D02*
X38039761Y12335715D01*
X38087380Y12478572D01*
X38087380Y12573810D01*
X38039761Y12716667D01*
X37944523Y12811905D01*
X37849285Y12859524D01*
X37658809Y12907143D01*
X37515952Y12907143D01*
X37325476Y12859524D01*
X37230238Y12811905D01*
X37135000Y12716667D01*
X37087380Y12573810D01*
X37087380Y12478572D01*
X37135000Y12335715D01*
X37182619Y12288096D01*
X38087380Y11716667D02*
X38039761Y11811905D01*
X37944523Y11859524D01*
X37087380Y11859524D01*
X37420714Y10907143D02*
X38087380Y10907143D01*
X37420714Y11335715D02*
X37944523Y11335715D01*
X38039761Y11288096D01*
X38087380Y11192858D01*
X38087380Y11050000D01*
X38039761Y10954762D01*
X37992142Y10907143D01*
X38087380Y10430953D02*
X37087380Y10430953D01*
X37468333Y10430953D02*
X37420714Y10335715D01*
X37420714Y10145239D01*
X37468333Y10050000D01*
X37515952Y10002381D01*
X37611190Y9954762D01*
X37896904Y9954762D01*
X37992142Y10002381D01*
X38039761Y10050000D01*
X38087380Y10145239D01*
X38087380Y10335715D01*
X38039761Y10430953D01*
M02*
