G04 #@! TF.GenerationSoftware,KiCad,Pcbnew,(6.0.9)*
G04 #@! TF.CreationDate,2022-11-05T01:50:54+09:00*
G04 #@! TF.ProjectId,prototype-projector-device,70726f74-6f74-4797-9065-2d70726f6a65,rev?*
G04 #@! TF.SameCoordinates,PX5f5e100PY8f0d180*
G04 #@! TF.FileFunction,Soldermask,Bot*
G04 #@! TF.FilePolarity,Negative*
%FSLAX46Y46*%
G04 Gerber Fmt 4.6, Leading zero omitted, Abs format (unit mm)*
G04 Created by KiCad (PCBNEW (6.0.9)) date 2022-11-05 01:50:54*
%MOMM*%
%LPD*%
G01*
G04 APERTURE LIST*
G04 Aperture macros list*
%AMRoundRect*
0 Rectangle with rounded corners*
0 $1 Rounding radius*
0 $2 $3 $4 $5 $6 $7 $8 $9 X,Y pos of 4 corners*
0 Add a 4 corners polygon primitive as box body*
4,1,4,$2,$3,$4,$5,$6,$7,$8,$9,$2,$3,0*
0 Add four circle primitives for the rounded corners*
1,1,$1+$1,$2,$3*
1,1,$1+$1,$4,$5*
1,1,$1+$1,$6,$7*
1,1,$1+$1,$8,$9*
0 Add four rect primitives between the rounded corners*
20,1,$1+$1,$2,$3,$4,$5,0*
20,1,$1+$1,$4,$5,$6,$7,0*
20,1,$1+$1,$6,$7,$8,$9,0*
20,1,$1+$1,$8,$9,$2,$3,0*%
G04 Aperture macros list end*
%ADD10C,2.000000*%
%ADD11R,1.700000X1.700000*%
%ADD12O,1.700000X1.700000*%
%ADD13RoundRect,0.250000X0.725000X-0.600000X0.725000X0.600000X-0.725000X0.600000X-0.725000X-0.600000X0*%
%ADD14O,1.950000X1.700000*%
%ADD15C,2.200000*%
%ADD16RoundRect,0.250000X0.675000X-0.675000X0.675000X0.675000X-0.675000X0.675000X-0.675000X-0.675000X0*%
%ADD17C,1.850000*%
%ADD18C,0.800000*%
%ADD19C,2.400000*%
G04 APERTURE END LIST*
D10*
X11049000Y6985000D03*
D11*
X18415000Y31750000D03*
D12*
X15875000Y31750000D03*
X13335000Y31750000D03*
D10*
X23495000Y17780000D03*
X11049000Y2540000D03*
D13*
X4555000Y5775000D03*
D14*
X4555000Y8275000D03*
X4555000Y10775000D03*
X4555000Y13275000D03*
D13*
X4555000Y21590000D03*
D14*
X4555000Y24090000D03*
X4555000Y26590000D03*
X4555000Y29090000D03*
D11*
X35550000Y31750000D03*
D12*
X33010000Y31750000D03*
X30470000Y31750000D03*
X27930000Y31750000D03*
D15*
X36760000Y7180000D03*
X36760000Y2980000D03*
D16*
X26560000Y2980000D03*
D17*
X26560000Y7180000D03*
D10*
X17780000Y17780000D03*
D18*
X21590000Y26670000D03*
X4445000Y32385000D03*
X4445000Y2540000D03*
X31750000Y6985000D03*
X22225000Y32385000D03*
X36830000Y20955000D03*
X26035000Y28575000D03*
X7620000Y7620000D03*
X32385000Y15240000D03*
X14605000Y2540000D03*
X22860000Y6985000D03*
X32385000Y19050000D03*
X11430000Y21590000D03*
X8890000Y28575000D03*
X31750000Y2540000D03*
X14605000Y12065000D03*
X20320000Y17780000D03*
D19*
X14605000Y6985000D03*
D18*
X20320000Y22860000D03*
X10160000Y24130000D03*
X25400000Y22860000D03*
M02*
