G04 #@! TF.GenerationSoftware,KiCad,Pcbnew,(6.0.9)*
G04 #@! TF.CreationDate,2022-11-05T01:50:54+09:00*
G04 #@! TF.ProjectId,prototype-projector-device,70726f74-6f74-4797-9065-2d70726f6a65,rev?*
G04 #@! TF.SameCoordinates,PX5f5e100PY8f0d180*
G04 #@! TF.FileFunction,Copper,L1,Top*
G04 #@! TF.FilePolarity,Positive*
%FSLAX46Y46*%
G04 Gerber Fmt 4.6, Leading zero omitted, Abs format (unit mm)*
G04 Created by KiCad (PCBNEW (6.0.9)) date 2022-11-05 01:50:54*
%MOMM*%
%LPD*%
G01*
G04 APERTURE LIST*
G04 Aperture macros list*
%AMRoundRect*
0 Rectangle with rounded corners*
0 $1 Rounding radius*
0 $2 $3 $4 $5 $6 $7 $8 $9 X,Y pos of 4 corners*
0 Add a 4 corners polygon primitive as box body*
4,1,4,$2,$3,$4,$5,$6,$7,$8,$9,$2,$3,0*
0 Add four circle primitives for the rounded corners*
1,1,$1+$1,$2,$3*
1,1,$1+$1,$4,$5*
1,1,$1+$1,$6,$7*
1,1,$1+$1,$8,$9*
0 Add four rect primitives between the rounded corners*
20,1,$1+$1,$2,$3,$4,$5,0*
20,1,$1+$1,$4,$5,$6,$7,0*
20,1,$1+$1,$6,$7,$8,$9,0*
20,1,$1+$1,$8,$9,$2,$3,0*%
%AMFreePoly0*
4,1,13,0.900000,0.500000,2.600000,0.500000,2.600000,-0.500000,0.900000,-0.500000,0.400000,-1.000000,-0.400000,-1.000000,-0.900000,-0.500000,-2.600000,-0.500000,-2.600000,0.500000,-0.900000,0.500000,-0.400000,1.000000,0.400000,1.000000,0.900000,0.500000,0.900000,0.500000,$1*%
%AMFreePoly1*
4,1,9,3.862500,-0.866500,0.737500,-0.866500,0.737500,-0.450000,-0.737500,-0.450000,-0.737500,0.450000,0.737500,0.450000,0.737500,0.866500,3.862500,0.866500,3.862500,-0.866500,3.862500,-0.866500,$1*%
G04 Aperture macros list end*
G04 #@! TA.AperFunction,ComponentPad*
%ADD10C,2.000000*%
G04 #@! TD*
G04 #@! TA.AperFunction,ComponentPad*
%ADD11R,1.700000X1.700000*%
G04 #@! TD*
G04 #@! TA.AperFunction,ComponentPad*
%ADD12O,1.700000X1.700000*%
G04 #@! TD*
G04 #@! TA.AperFunction,SMDPad,CuDef*
%ADD13RoundRect,0.150000X0.675000X0.150000X-0.675000X0.150000X-0.675000X-0.150000X0.675000X-0.150000X0*%
G04 #@! TD*
G04 #@! TA.AperFunction,SMDPad,CuDef*
%ADD14RoundRect,0.225000X0.225000X0.250000X-0.225000X0.250000X-0.225000X-0.250000X0.225000X-0.250000X0*%
G04 #@! TD*
G04 #@! TA.AperFunction,SMDPad,CuDef*
%ADD15R,2.600000X4.500000*%
G04 #@! TD*
G04 #@! TA.AperFunction,SMDPad,CuDef*
%ADD16R,0.700000X1.500000*%
G04 #@! TD*
G04 #@! TA.AperFunction,SMDPad,CuDef*
%ADD17FreePoly0,270.000000*%
G04 #@! TD*
G04 #@! TA.AperFunction,ComponentPad*
%ADD18RoundRect,0.250000X0.725000X-0.600000X0.725000X0.600000X-0.725000X0.600000X-0.725000X-0.600000X0*%
G04 #@! TD*
G04 #@! TA.AperFunction,ComponentPad*
%ADD19O,1.950000X1.700000*%
G04 #@! TD*
G04 #@! TA.AperFunction,SMDPad,CuDef*
%ADD20RoundRect,0.225000X-0.225000X-0.250000X0.225000X-0.250000X0.225000X0.250000X-0.225000X0.250000X0*%
G04 #@! TD*
G04 #@! TA.AperFunction,SMDPad,CuDef*
%ADD21RoundRect,0.250000X-0.312500X-1.075000X0.312500X-1.075000X0.312500X1.075000X-0.312500X1.075000X0*%
G04 #@! TD*
G04 #@! TA.AperFunction,SMDPad,CuDef*
%ADD22RoundRect,0.150000X-0.825000X-0.150000X0.825000X-0.150000X0.825000X0.150000X-0.825000X0.150000X0*%
G04 #@! TD*
G04 #@! TA.AperFunction,SMDPad,CuDef*
%ADD23RoundRect,0.250000X0.250000X0.475000X-0.250000X0.475000X-0.250000X-0.475000X0.250000X-0.475000X0*%
G04 #@! TD*
G04 #@! TA.AperFunction,SMDPad,CuDef*
%ADD24R,1.100000X1.100000*%
G04 #@! TD*
G04 #@! TA.AperFunction,SMDPad,CuDef*
%ADD25RoundRect,0.200000X-0.200000X-0.275000X0.200000X-0.275000X0.200000X0.275000X-0.200000X0.275000X0*%
G04 #@! TD*
G04 #@! TA.AperFunction,SMDPad,CuDef*
%ADD26R,1.300000X0.900000*%
G04 #@! TD*
G04 #@! TA.AperFunction,SMDPad,CuDef*
%ADD27FreePoly1,0.000000*%
G04 #@! TD*
G04 #@! TA.AperFunction,ComponentPad*
%ADD28RoundRect,0.250000X0.675000X-0.675000X0.675000X0.675000X-0.675000X0.675000X-0.675000X-0.675000X0*%
G04 #@! TD*
G04 #@! TA.AperFunction,ComponentPad*
%ADD29C,1.850000*%
G04 #@! TD*
G04 #@! TA.AperFunction,ViaPad*
%ADD30C,0.800000*%
G04 #@! TD*
G04 #@! TA.AperFunction,ViaPad*
%ADD31C,2.400000*%
G04 #@! TD*
G04 #@! TA.AperFunction,Conductor*
%ADD32C,0.250000*%
G04 #@! TD*
G04 #@! TA.AperFunction,Conductor*
%ADD33C,1.000000*%
G04 #@! TD*
G04 APERTURE END LIST*
D10*
X11049000Y6985000D03*
D11*
X18415000Y31750000D03*
D12*
X15875000Y31750000D03*
X13335000Y31750000D03*
D13*
X18500000Y22860000D03*
X18500000Y24130000D03*
X18500000Y25400000D03*
X18500000Y26670000D03*
X13250000Y26670000D03*
X13250000Y25400000D03*
X13250000Y24130000D03*
X13250000Y22860000D03*
D14*
X23495000Y28575000D03*
X21945000Y28575000D03*
D10*
X23495000Y17780000D03*
D15*
X36385000Y15240000D03*
X28385000Y15240000D03*
D10*
X11049000Y2540000D03*
D16*
X20550000Y13915000D03*
D17*
X19050000Y12065000D03*
D16*
X17550000Y13915000D03*
X17550000Y10215000D03*
X20550000Y10215000D03*
D18*
X4555000Y5775000D03*
D19*
X4555000Y8275000D03*
X4555000Y10775000D03*
X4555000Y13275000D03*
D20*
X11036000Y11430000D03*
X12586000Y11430000D03*
D18*
X4555000Y21590000D03*
D19*
X4555000Y24090000D03*
X4555000Y26590000D03*
X4555000Y29090000D03*
D21*
X17587500Y6985000D03*
X20512500Y6985000D03*
D11*
X35550000Y31750000D03*
D12*
X33010000Y31750000D03*
X30470000Y31750000D03*
X27930000Y31750000D03*
D22*
X23475000Y26670000D03*
X23475000Y25400000D03*
X23475000Y24130000D03*
X23475000Y22860000D03*
X28425000Y22860000D03*
X28425000Y24130000D03*
X28425000Y25400000D03*
X28425000Y26670000D03*
D23*
X20000000Y2540000D03*
X18100000Y2540000D03*
D24*
X36195000Y27435000D03*
X36195000Y24635000D03*
D25*
X31445000Y24130000D03*
X33095000Y24130000D03*
D20*
X11036000Y19050000D03*
X12586000Y19050000D03*
D26*
X11050000Y16740000D03*
D27*
X11137500Y15240000D03*
D26*
X11050000Y13740000D03*
D24*
X24130000Y10665000D03*
X24130000Y13465000D03*
D28*
X26560000Y2980000D03*
D29*
X26560000Y7180000D03*
D10*
X17780000Y17780000D03*
D30*
X21590000Y26670000D03*
X4445000Y32385000D03*
X4445000Y2540000D03*
X31750000Y6985000D03*
X22225000Y32385000D03*
X36830000Y20955000D03*
X26035000Y28575000D03*
X7620000Y7620000D03*
X32385000Y15240000D03*
X14605000Y2540000D03*
X22860000Y6985000D03*
X32385000Y19050000D03*
X11430000Y21590000D03*
X8890000Y28575000D03*
X31750000Y2540000D03*
X14605000Y12065000D03*
X20320000Y17780000D03*
D31*
X14605000Y6985000D03*
D30*
X20320000Y22860000D03*
X10160000Y24130000D03*
X25400000Y22860000D03*
D32*
X17550000Y15010000D02*
X17550000Y13915000D01*
X21590000Y15875000D02*
X18415000Y15875000D01*
X23495000Y17780000D02*
X21590000Y15875000D01*
X18415000Y15875000D02*
X17550000Y15010000D01*
X13335000Y20320000D02*
X15240000Y20320000D01*
X13335000Y22775000D02*
X13335000Y20320000D01*
X11036000Y19050000D02*
X11036000Y19926000D01*
X23495000Y26690000D02*
X23475000Y26670000D01*
X11036000Y19926000D02*
X11430000Y20320000D01*
X11430000Y20320000D02*
X13335000Y20320000D01*
X13250000Y22860000D02*
X13335000Y22775000D01*
X13250000Y22817500D02*
X13250000Y22860000D01*
X23495000Y28575000D02*
X23495000Y30480000D01*
X23495000Y30480000D02*
X26670000Y33655000D01*
X11050000Y19036000D02*
X11036000Y19050000D01*
X26670000Y33655000D02*
X33645000Y33655000D01*
X15240000Y20320000D02*
X17780000Y17780000D01*
X11050000Y16740000D02*
X11050000Y19036000D01*
X33645000Y33655000D02*
X35550000Y31750000D01*
X23475000Y26670000D02*
X21590000Y26670000D01*
X23495000Y28575000D02*
X23495000Y26690000D01*
D33*
X2540000Y19575000D02*
X4555000Y21590000D01*
X20550000Y10215000D02*
X20550000Y7022500D01*
X11050000Y11444000D02*
X11036000Y11430000D01*
X20512500Y4637500D02*
X4637500Y4637500D01*
X11036000Y11430000D02*
X11036000Y4699000D01*
X20512500Y6985000D02*
X20512500Y4637500D01*
X20550000Y10215000D02*
X23680000Y10215000D01*
X4555000Y5775000D02*
X4555000Y4720000D01*
X20512500Y4637500D02*
X20512500Y3052500D01*
X20512500Y3052500D02*
X20000000Y2540000D01*
X20550000Y7022500D02*
X20512500Y6985000D01*
X23680000Y10215000D02*
X24130000Y10665000D01*
X2540000Y6735000D02*
X2540000Y19575000D01*
X4637500Y4637500D02*
X2540000Y6735000D01*
X4555000Y4720000D02*
X4637500Y4637500D01*
X11050000Y13740000D02*
X11050000Y11444000D01*
X27060000Y13915000D02*
X28385000Y15240000D01*
X24185000Y13915000D02*
X27060000Y13915000D01*
X24130000Y13860000D02*
X24185000Y13915000D01*
X24130000Y13465000D02*
X24130000Y13860000D01*
X20550000Y13915000D02*
X24185000Y13915000D01*
D32*
X34160000Y27435000D02*
X36195000Y27435000D01*
X33010000Y31750000D02*
X33010000Y28585000D01*
X33010000Y28585000D02*
X34160000Y27435000D01*
X33095000Y25960000D02*
X33095000Y24130000D01*
X30480000Y28575000D02*
X33095000Y25960000D01*
X30480000Y31740000D02*
X30480000Y28575000D01*
X33095000Y24130000D02*
X35690000Y24130000D01*
X30470000Y31750000D02*
X30480000Y31740000D01*
X35690000Y24130000D02*
X36195000Y24635000D01*
D33*
X17550000Y10215000D02*
X17550000Y7022500D01*
X17550000Y7022500D02*
X17587500Y6985000D01*
X17587500Y6985000D02*
X14605000Y6985000D01*
X28325000Y7180000D02*
X36385000Y15240000D01*
X26560000Y7180000D02*
X28325000Y7180000D01*
D32*
X20320000Y26670000D02*
X18500000Y26670000D01*
X23475000Y25400000D02*
X21590000Y25400000D01*
X18415000Y26755000D02*
X18500000Y26670000D01*
X21590000Y25400000D02*
X20320000Y26670000D01*
X18415000Y31750000D02*
X18415000Y26755000D01*
X23475000Y24130000D02*
X21590000Y24130000D01*
X20320000Y22860000D02*
X18500000Y22860000D01*
X21590000Y24130000D02*
X20320000Y22860000D01*
X8255000Y25400000D02*
X13250000Y25400000D01*
X6945000Y24090000D02*
X8255000Y25400000D01*
X4555000Y8275000D02*
X6985000Y10705000D01*
X4555000Y24090000D02*
X6945000Y24090000D01*
X6985000Y10705000D02*
X6985000Y24050000D01*
X6985000Y24050000D02*
X6945000Y24090000D01*
X13250000Y24130000D02*
X10160000Y24130000D01*
X28425000Y24130000D02*
X31445000Y24130000D01*
X23475000Y17800000D02*
X23495000Y17780000D01*
X23475000Y22860000D02*
X25400000Y22860000D01*
X25400000Y21590000D02*
X26670000Y22860000D01*
X17145000Y21590000D02*
X25400000Y21590000D01*
X27940000Y25400000D02*
X28425000Y25400000D01*
X16510000Y22225000D02*
X17145000Y21590000D01*
X18500000Y24130000D02*
X17145000Y24130000D01*
X26670000Y22860000D02*
X26670000Y24130000D01*
X16510000Y23495000D02*
X16510000Y22225000D01*
X17145000Y24130000D02*
X16510000Y23495000D01*
X26670000Y24130000D02*
X27940000Y25400000D01*
X17145000Y25400000D02*
X15875000Y24130000D01*
X26520000Y20955000D02*
X28425000Y22860000D01*
X15875000Y24130000D02*
X15875000Y21590000D01*
X18500000Y25400000D02*
X17145000Y25400000D01*
X15875000Y21590000D02*
X16510000Y20955000D01*
X16510000Y20955000D02*
X26520000Y20955000D01*
G04 #@! TA.AperFunction,Conductor*
G36*
X26461372Y34471498D02*
G01*
X26507865Y34417842D01*
X26517969Y34347568D01*
X26488475Y34282988D01*
X26428402Y34244503D01*
X26424310Y34243314D01*
X26416407Y34241018D01*
X26409588Y34236985D01*
X26409583Y34236983D01*
X26398972Y34230707D01*
X26381224Y34222012D01*
X26362383Y34214552D01*
X26355967Y34209890D01*
X26355966Y34209890D01*
X26326613Y34188564D01*
X26316693Y34182048D01*
X26285465Y34163580D01*
X26285462Y34163578D01*
X26278638Y34159542D01*
X26264317Y34145221D01*
X26249284Y34132381D01*
X26232893Y34120472D01*
X26224217Y34109984D01*
X26204702Y34086395D01*
X26196712Y34077616D01*
X23102747Y30983652D01*
X23094461Y30976112D01*
X23087982Y30972000D01*
X23082557Y30966223D01*
X23041357Y30922349D01*
X23038602Y30919507D01*
X23018865Y30899770D01*
X23016385Y30896573D01*
X23008682Y30887553D01*
X22978414Y30855321D01*
X22974595Y30848375D01*
X22974593Y30848372D01*
X22968652Y30837566D01*
X22957801Y30821047D01*
X22945386Y30805041D01*
X22942241Y30797772D01*
X22942238Y30797768D01*
X22927826Y30764463D01*
X22922609Y30753813D01*
X22901305Y30715060D01*
X22899334Y30707385D01*
X22899334Y30707384D01*
X22896267Y30695438D01*
X22889863Y30676734D01*
X22881819Y30658145D01*
X22880580Y30650322D01*
X22880577Y30650312D01*
X22874901Y30614476D01*
X22872495Y30602856D01*
X22863472Y30567711D01*
X22861500Y30560030D01*
X22861500Y30539776D01*
X22859949Y30520066D01*
X22856780Y30500057D01*
X22857526Y30492165D01*
X22860941Y30456039D01*
X22861500Y30444181D01*
X22861500Y29503379D01*
X22841498Y29435258D01*
X22815106Y29406116D01*
X22811287Y29403752D01*
X22806112Y29398568D01*
X22800376Y29394022D01*
X22798944Y29395829D01*
X22746425Y29367098D01*
X22675605Y29372108D01*
X22639147Y29395499D01*
X22638317Y29394448D01*
X22621160Y29407998D01*
X22488120Y29490004D01*
X22474939Y29496151D01*
X22326186Y29545491D01*
X22312810Y29548358D01*
X22221903Y29557672D01*
X22216874Y29557929D01*
X22201876Y29553525D01*
X22200671Y29552135D01*
X22199000Y29544452D01*
X22199000Y28447000D01*
X22178998Y28378879D01*
X22125342Y28332386D01*
X22073000Y28321000D01*
X21005115Y28321000D01*
X20989876Y28316525D01*
X20988671Y28315135D01*
X20987000Y28307452D01*
X20987000Y28279562D01*
X20987337Y28273047D01*
X20996894Y28180943D01*
X20999788Y28167544D01*
X21049381Y28018893D01*
X21055555Y28005714D01*
X21137788Y27872827D01*
X21146824Y27861426D01*
X21257429Y27751014D01*
X21268842Y27742000D01*
X21273333Y27739232D01*
X21320825Y27686458D01*
X21332246Y27616386D01*
X21303970Y27551263D01*
X21258463Y27516867D01*
X21139278Y27463803D01*
X21139276Y27463802D01*
X21133248Y27461118D01*
X20978747Y27348866D01*
X20878179Y27237174D01*
X20853573Y27209846D01*
X20793127Y27172607D01*
X20722143Y27173959D01*
X20695698Y27187275D01*
X20695320Y27186587D01*
X20677566Y27196348D01*
X20661047Y27207199D01*
X20657634Y27209846D01*
X20645041Y27219614D01*
X20637772Y27222759D01*
X20637768Y27222762D01*
X20604463Y27237174D01*
X20593813Y27242391D01*
X20555060Y27263695D01*
X20535437Y27268733D01*
X20516734Y27275137D01*
X20505420Y27280033D01*
X20505419Y27280033D01*
X20498145Y27283181D01*
X20490322Y27284420D01*
X20490312Y27284423D01*
X20454476Y27290099D01*
X20442856Y27292505D01*
X20407711Y27301528D01*
X20407710Y27301528D01*
X20400030Y27303500D01*
X20379776Y27303500D01*
X20360065Y27305051D01*
X20347886Y27306980D01*
X20340057Y27308220D01*
X20332165Y27307474D01*
X20296039Y27304059D01*
X20284181Y27303500D01*
X19674950Y27303500D01*
X19606829Y27323502D01*
X19593729Y27334059D01*
X19593675Y27333989D01*
X19587415Y27338845D01*
X19581807Y27344453D01*
X19574983Y27348489D01*
X19574980Y27348491D01*
X19445427Y27425108D01*
X19445428Y27425108D01*
X19438601Y27429145D01*
X19430990Y27431356D01*
X19430988Y27431357D01*
X19378769Y27446528D01*
X19278831Y27475562D01*
X19272426Y27476066D01*
X19272421Y27476067D01*
X19243958Y27478307D01*
X19243950Y27478307D01*
X19241502Y27478500D01*
X19174500Y27478500D01*
X19106379Y27498502D01*
X19059886Y27552158D01*
X19048500Y27604500D01*
X19048500Y28847115D01*
X20987000Y28847115D01*
X20991475Y28831876D01*
X20992865Y28830671D01*
X21000548Y28829000D01*
X21672885Y28829000D01*
X21688124Y28833475D01*
X21689329Y28834865D01*
X21691000Y28842548D01*
X21691000Y29539885D01*
X21686525Y29555124D01*
X21685135Y29556329D01*
X21677452Y29558000D01*
X21674562Y29558000D01*
X21668047Y29557663D01*
X21575943Y29548106D01*
X21562544Y29545212D01*
X21413893Y29495619D01*
X21400714Y29489445D01*
X21267827Y29407212D01*
X21256426Y29398176D01*
X21146014Y29287571D01*
X21137002Y29276160D01*
X21054996Y29143120D01*
X21048849Y29129939D01*
X20999509Y28981186D01*
X20996642Y28967810D01*
X20987328Y28876903D01*
X20987000Y28870486D01*
X20987000Y28847115D01*
X19048500Y28847115D01*
X19048500Y30265500D01*
X19068502Y30333621D01*
X19122158Y30380114D01*
X19174500Y30391500D01*
X19313134Y30391500D01*
X19375316Y30398255D01*
X19511705Y30449385D01*
X19628261Y30536739D01*
X19715615Y30653295D01*
X19766745Y30789684D01*
X19773500Y30851866D01*
X19773500Y32648134D01*
X19766745Y32710316D01*
X19715615Y32846705D01*
X19628261Y32963261D01*
X19511705Y33050615D01*
X19375316Y33101745D01*
X19313134Y33108500D01*
X17516866Y33108500D01*
X17454684Y33101745D01*
X17318295Y33050615D01*
X17201739Y32963261D01*
X17114385Y32846705D01*
X17111233Y32838297D01*
X17069919Y32728093D01*
X17027277Y32671329D01*
X16960716Y32646629D01*
X16891367Y32661837D01*
X16858743Y32687524D01*
X16808151Y32743125D01*
X16808142Y32743134D01*
X16804670Y32746949D01*
X16800616Y32750151D01*
X16800615Y32750152D01*
X16633414Y32882200D01*
X16633410Y32882202D01*
X16629359Y32885402D01*
X16593028Y32905458D01*
X16556797Y32925458D01*
X16433789Y32993362D01*
X16428920Y32995086D01*
X16428916Y32995088D01*
X16228087Y33066205D01*
X16228083Y33066206D01*
X16223212Y33067931D01*
X16218119Y33068838D01*
X16218116Y33068839D01*
X16008373Y33106200D01*
X16008367Y33106201D01*
X16003284Y33107106D01*
X15929452Y33108008D01*
X15785081Y33109772D01*
X15785079Y33109772D01*
X15779911Y33109835D01*
X15559091Y33076045D01*
X15346756Y33006643D01*
X15308771Y32986869D01*
X15233801Y32947842D01*
X15148607Y32903493D01*
X15144474Y32900390D01*
X15144471Y32900388D01*
X15003761Y32794740D01*
X14969965Y32769365D01*
X14944541Y32742760D01*
X14876280Y32671329D01*
X14815629Y32607862D01*
X14812720Y32603597D01*
X14812714Y32603589D01*
X14800404Y32585543D01*
X14708204Y32450382D01*
X14707898Y32449934D01*
X14652987Y32404931D01*
X14582462Y32396760D01*
X14518715Y32428014D01*
X14498018Y32452498D01*
X14417426Y32577074D01*
X14411136Y32585243D01*
X14267806Y32742760D01*
X14260273Y32749785D01*
X14093139Y32881778D01*
X14084552Y32887483D01*
X13898117Y32990401D01*
X13888705Y32994631D01*
X13687959Y33065720D01*
X13677988Y33068354D01*
X13606837Y33081028D01*
X13593540Y33079568D01*
X13589000Y33065011D01*
X13589000Y30431483D01*
X13593064Y30417641D01*
X13606478Y30415607D01*
X13613184Y30416466D01*
X13623262Y30418608D01*
X13827255Y30479809D01*
X13836842Y30483567D01*
X14028095Y30577261D01*
X14036945Y30582536D01*
X14210328Y30706208D01*
X14218200Y30712861D01*
X14369052Y30863188D01*
X14375730Y30871035D01*
X14503022Y31048181D01*
X14504279Y31047278D01*
X14551373Y31090638D01*
X14621311Y31102855D01*
X14686751Y31075322D01*
X14714579Y31043489D01*
X14774987Y30944912D01*
X14921250Y30776062D01*
X15093126Y30633368D01*
X15286000Y30520662D01*
X15494692Y30440970D01*
X15499760Y30439939D01*
X15499763Y30439938D01*
X15578844Y30423849D01*
X15713597Y30396433D01*
X15718772Y30396243D01*
X15718774Y30396243D01*
X15931673Y30388436D01*
X15931677Y30388436D01*
X15936837Y30388247D01*
X15941957Y30388903D01*
X15941959Y30388903D01*
X16153288Y30415975D01*
X16153289Y30415975D01*
X16158416Y30416632D01*
X16163366Y30418117D01*
X16367429Y30479339D01*
X16367434Y30479341D01*
X16372384Y30480826D01*
X16572994Y30579104D01*
X16754860Y30708827D01*
X16863091Y30816681D01*
X16925462Y30850596D01*
X16996268Y30845408D01*
X17053030Y30802762D01*
X17070012Y30771659D01*
X17088628Y30722001D01*
X17114385Y30653295D01*
X17201739Y30536739D01*
X17318295Y30449385D01*
X17454684Y30398255D01*
X17516866Y30391500D01*
X17655500Y30391500D01*
X17723621Y30371498D01*
X17770114Y30317842D01*
X17781500Y30265500D01*
X17781500Y27587693D01*
X17761498Y27519572D01*
X17707842Y27473079D01*
X17690653Y27466696D01*
X17561399Y27429145D01*
X17554572Y27425108D01*
X17554573Y27425108D01*
X17425020Y27348491D01*
X17425017Y27348489D01*
X17418193Y27344453D01*
X17300547Y27226807D01*
X17296511Y27219983D01*
X17296509Y27219980D01*
X17240329Y27124984D01*
X17215855Y27083601D01*
X17213644Y27075990D01*
X17213643Y27075988D01*
X17203988Y27042753D01*
X17169438Y26923831D01*
X17168934Y26917426D01*
X17168933Y26917421D01*
X17167389Y26897798D01*
X17166500Y26886502D01*
X17166500Y26453498D01*
X17166693Y26451050D01*
X17166693Y26451042D01*
X17168415Y26429173D01*
X17169438Y26416169D01*
X17184104Y26365687D01*
X17213586Y26264210D01*
X17215855Y26256399D01*
X17235231Y26223637D01*
X17252689Y26154822D01*
X17230172Y26087491D01*
X17174827Y26043022D01*
X17126776Y26033500D01*
X17105144Y26033500D01*
X17101210Y26033003D01*
X17101209Y26033003D01*
X17101144Y26032995D01*
X17089307Y26032062D01*
X17057490Y26031062D01*
X17053029Y26030922D01*
X17045110Y26030673D01*
X17032391Y26026978D01*
X17025658Y26025022D01*
X17006306Y26021014D01*
X16999235Y26020120D01*
X16986203Y26018474D01*
X16978834Y26015557D01*
X16978832Y26015556D01*
X16945097Y26002200D01*
X16933869Y25998355D01*
X16891407Y25986018D01*
X16884585Y25981984D01*
X16884579Y25981981D01*
X16873968Y25975706D01*
X16856218Y25967010D01*
X16844756Y25962472D01*
X16844751Y25962469D01*
X16837383Y25959552D01*
X16824203Y25949976D01*
X16801625Y25933573D01*
X16791707Y25927057D01*
X16773019Y25916005D01*
X16753637Y25904542D01*
X16739313Y25890218D01*
X16724283Y25877380D01*
X16707893Y25865472D01*
X16692083Y25846361D01*
X16679712Y25831407D01*
X16671722Y25822627D01*
X15482747Y24633652D01*
X15474461Y24626112D01*
X15467982Y24622000D01*
X15462557Y24616223D01*
X15421357Y24572349D01*
X15418602Y24569507D01*
X15398865Y24549770D01*
X15396385Y24546573D01*
X15388682Y24537553D01*
X15358414Y24505321D01*
X15354595Y24498375D01*
X15354593Y24498372D01*
X15348652Y24487566D01*
X15337801Y24471047D01*
X15325386Y24455041D01*
X15322241Y24447772D01*
X15322238Y24447768D01*
X15307826Y24414463D01*
X15302609Y24403813D01*
X15281305Y24365060D01*
X15279334Y24357385D01*
X15279334Y24357384D01*
X15276267Y24345438D01*
X15269863Y24326734D01*
X15261819Y24308145D01*
X15260580Y24300322D01*
X15260577Y24300312D01*
X15254901Y24264476D01*
X15252495Y24252856D01*
X15241500Y24210030D01*
X15241500Y24189776D01*
X15239949Y24170066D01*
X15236780Y24150057D01*
X15237526Y24142165D01*
X15240941Y24106039D01*
X15241500Y24094181D01*
X15241500Y21668767D01*
X15240973Y21657584D01*
X15239298Y21650091D01*
X15239547Y21642165D01*
X15239547Y21642164D01*
X15241438Y21582014D01*
X15241500Y21578055D01*
X15241500Y21550144D01*
X15241997Y21546210D01*
X15241997Y21546209D01*
X15242005Y21546144D01*
X15242938Y21534307D01*
X15244327Y21490111D01*
X15249978Y21470661D01*
X15253987Y21451300D01*
X15256526Y21431203D01*
X15259445Y21423832D01*
X15259445Y21423830D01*
X15272804Y21390088D01*
X15276649Y21378858D01*
X15288982Y21336407D01*
X15293015Y21329588D01*
X15293017Y21329583D01*
X15299293Y21318972D01*
X15307988Y21301224D01*
X15315448Y21282383D01*
X15320110Y21275967D01*
X15320110Y21275966D01*
X15341436Y21246613D01*
X15347952Y21236693D01*
X15370458Y21198638D01*
X15384779Y21184317D01*
X15397619Y21169284D01*
X15409042Y21153562D01*
X15432901Y21086695D01*
X15416822Y21017543D01*
X15365908Y20968062D01*
X15307107Y20953500D01*
X15299776Y20953500D01*
X15280065Y20955051D01*
X15267886Y20956980D01*
X15260057Y20958220D01*
X15230786Y20955453D01*
X15216039Y20954059D01*
X15204181Y20953500D01*
X14094500Y20953500D01*
X14026379Y20973502D01*
X13979886Y21027158D01*
X13968500Y21079500D01*
X13968500Y21942307D01*
X13988502Y22010428D01*
X14042158Y22056921D01*
X14059348Y22063304D01*
X14188601Y22100855D01*
X14217411Y22117893D01*
X14324980Y22181509D01*
X14324983Y22181511D01*
X14331807Y22185547D01*
X14449453Y22303193D01*
X14453489Y22310017D01*
X14453491Y22310020D01*
X14530108Y22439573D01*
X14534145Y22446399D01*
X14544698Y22482721D01*
X14578767Y22599992D01*
X14580562Y22606169D01*
X14583500Y22643498D01*
X14583500Y23076502D01*
X14580562Y23113831D01*
X14534145Y23273601D01*
X14449453Y23416807D01*
X14446771Y23419489D01*
X14421498Y23483861D01*
X14435400Y23553484D01*
X14445572Y23569312D01*
X14449453Y23573193D01*
X14534145Y23716399D01*
X14537783Y23728919D01*
X14560003Y23805405D01*
X14580562Y23876169D01*
X14581142Y23883526D01*
X14583307Y23911042D01*
X14583307Y23911050D01*
X14583500Y23913498D01*
X14583500Y24346502D01*
X14582644Y24357384D01*
X14581067Y24377421D01*
X14581066Y24377426D01*
X14580562Y24383831D01*
X14545266Y24505321D01*
X14536357Y24535988D01*
X14536356Y24535990D01*
X14534145Y24543601D01*
X14449453Y24686807D01*
X14446771Y24689489D01*
X14421498Y24753861D01*
X14435400Y24823484D01*
X14445572Y24839312D01*
X14449453Y24843193D01*
X14534145Y24986399D01*
X14537799Y24998974D01*
X14568530Y25104754D01*
X14580562Y25146169D01*
X14581300Y25155539D01*
X14583307Y25181042D01*
X14583307Y25181050D01*
X14583500Y25183498D01*
X14583500Y25616502D01*
X14581748Y25638767D01*
X14581067Y25647421D01*
X14581066Y25647426D01*
X14580562Y25653831D01*
X14534145Y25813601D01*
X14483678Y25898936D01*
X14453493Y25949976D01*
X14453492Y25949977D01*
X14449453Y25956807D01*
X14446513Y25959747D01*
X14421180Y26024266D01*
X14435079Y26093889D01*
X14447126Y26112636D01*
X14453090Y26120324D01*
X14529648Y26249779D01*
X14535893Y26264210D01*
X14574939Y26398605D01*
X14574899Y26412706D01*
X14567630Y26416000D01*
X11938122Y26416000D01*
X11924591Y26412027D01*
X11923456Y26404129D01*
X11964107Y26264210D01*
X11970352Y26249779D01*
X11985811Y26223639D01*
X12003270Y26154823D01*
X11980753Y26087491D01*
X11925409Y26043022D01*
X11877357Y26033500D01*
X8333768Y26033500D01*
X8322585Y26034027D01*
X8315092Y26035702D01*
X8307166Y26035453D01*
X8307165Y26035453D01*
X8247002Y26033562D01*
X8243044Y26033500D01*
X8215144Y26033500D01*
X8211154Y26032996D01*
X8199320Y26032064D01*
X8155111Y26030674D01*
X8147497Y26028462D01*
X8147492Y26028461D01*
X8135659Y26025023D01*
X8116296Y26021012D01*
X8096203Y26018474D01*
X8088836Y26015557D01*
X8088831Y26015556D01*
X8055092Y26002198D01*
X8043865Y25998354D01*
X8001407Y25986018D01*
X7994581Y25981981D01*
X7983972Y25975707D01*
X7966224Y25967012D01*
X7947383Y25959552D01*
X7940968Y25954891D01*
X7940966Y25954890D01*
X7911613Y25933564D01*
X7901693Y25927048D01*
X7870465Y25908580D01*
X7870462Y25908578D01*
X7863638Y25904542D01*
X7849317Y25890221D01*
X7834284Y25877381D01*
X7817893Y25865472D01*
X7802083Y25846361D01*
X7789702Y25831395D01*
X7781712Y25822616D01*
X6719500Y24760405D01*
X6657188Y24726379D01*
X6630405Y24723500D01*
X5955596Y24723500D01*
X5887475Y24743502D01*
X5847877Y24784134D01*
X5830519Y24812740D01*
X5781623Y24893317D01*
X5736774Y24945001D01*
X5634023Y25063412D01*
X5634021Y25063414D01*
X5630523Y25067445D01*
X5585021Y25104754D01*
X5456373Y25210240D01*
X5456367Y25210244D01*
X5452245Y25213624D01*
X5420750Y25231552D01*
X5371445Y25282632D01*
X5357583Y25352262D01*
X5383566Y25418333D01*
X5412716Y25445573D01*
X5448642Y25469760D01*
X5534319Y25527441D01*
X5548618Y25541081D01*
X5623541Y25612555D01*
X5701135Y25686576D01*
X5838754Y25871542D01*
X5841721Y25877376D01*
X5895818Y25983779D01*
X5943240Y26077051D01*
X5948469Y26093889D01*
X6010024Y26292129D01*
X6011607Y26297227D01*
X6024845Y26397107D01*
X6041198Y26520489D01*
X6041198Y26520494D01*
X6041898Y26525774D01*
X6033249Y26756158D01*
X5994383Y26941395D01*
X11925061Y26941395D01*
X11925101Y26927294D01*
X11932370Y26924000D01*
X12977885Y26924000D01*
X12993124Y26928475D01*
X12994329Y26929865D01*
X12996000Y26937548D01*
X12996000Y26942115D01*
X13504000Y26942115D01*
X13508475Y26926876D01*
X13509865Y26925671D01*
X13517548Y26924000D01*
X14561878Y26924000D01*
X14575409Y26927973D01*
X14576544Y26935871D01*
X14535893Y27075790D01*
X14529648Y27090221D01*
X14453089Y27219678D01*
X14443449Y27232104D01*
X14337104Y27338449D01*
X14324678Y27348089D01*
X14195221Y27424648D01*
X14180790Y27430893D01*
X14034935Y27473269D01*
X14022333Y27475570D01*
X13993916Y27477807D01*
X13988986Y27478000D01*
X13522115Y27478000D01*
X13506876Y27473525D01*
X13505671Y27472135D01*
X13504000Y27464452D01*
X13504000Y26942115D01*
X12996000Y26942115D01*
X12996000Y27459884D01*
X12991525Y27475123D01*
X12990135Y27476328D01*
X12982452Y27477999D01*
X12511017Y27477999D01*
X12506080Y27477805D01*
X12477664Y27475570D01*
X12465069Y27473270D01*
X12319210Y27430893D01*
X12304779Y27424648D01*
X12175322Y27348089D01*
X12162896Y27338449D01*
X12056551Y27232104D01*
X12046911Y27219678D01*
X11970352Y27090221D01*
X11964107Y27075790D01*
X11925061Y26941395D01*
X5994383Y26941395D01*
X5985907Y26981791D01*
X5943086Y27090221D01*
X5903185Y27191256D01*
X5903184Y27191258D01*
X5901224Y27196221D01*
X5894563Y27207199D01*
X5784390Y27388757D01*
X5781623Y27393317D01*
X5778126Y27397347D01*
X5634023Y27563412D01*
X5634021Y27563414D01*
X5630523Y27567445D01*
X5533961Y27646621D01*
X5456373Y27710240D01*
X5456367Y27710244D01*
X5452245Y27713624D01*
X5447602Y27716267D01*
X5420265Y27731829D01*
X5370959Y27782912D01*
X5357098Y27852542D01*
X5383082Y27918613D01*
X5412232Y27945851D01*
X5529578Y28024852D01*
X5537870Y28031519D01*
X5696900Y28183228D01*
X5703941Y28191186D01*
X5835141Y28367525D01*
X5840745Y28376562D01*
X5940357Y28572484D01*
X5944357Y28582335D01*
X6009534Y28792240D01*
X6011817Y28802624D01*
X6013861Y28818043D01*
X6011665Y28832207D01*
X5998478Y28836000D01*
X3113808Y28836000D01*
X3100277Y28832027D01*
X3098752Y28821420D01*
X3123477Y28703579D01*
X3126537Y28693383D01*
X3207263Y28488971D01*
X3211994Y28479439D01*
X3326016Y28291538D01*
X3332280Y28282948D01*
X3476327Y28116948D01*
X3483958Y28109528D01*
X3653911Y27970174D01*
X3662674Y27964152D01*
X3689711Y27948762D01*
X3739018Y27897680D01*
X3752880Y27828049D01*
X3726897Y27761978D01*
X3697747Y27734739D01*
X3693425Y27731829D01*
X3575681Y27652559D01*
X3408865Y27493424D01*
X3271246Y27308458D01*
X3268830Y27303707D01*
X3268828Y27303703D01*
X3221109Y27209846D01*
X3166760Y27102949D01*
X3165178Y27097855D01*
X3165177Y27097852D01*
X3122891Y26961668D01*
X3098393Y26882773D01*
X3097692Y26877484D01*
X3076784Y26719730D01*
X3068102Y26654226D01*
X3076751Y26423842D01*
X3077846Y26418623D01*
X3083706Y26390695D01*
X3124093Y26198209D01*
X3126051Y26193250D01*
X3126052Y26193248D01*
X3203020Y25998355D01*
X3208776Y25983779D01*
X3211543Y25979220D01*
X3211544Y25979217D01*
X3271000Y25881237D01*
X3328377Y25786683D01*
X3331874Y25782653D01*
X3473921Y25618958D01*
X3479477Y25612555D01*
X3483608Y25609168D01*
X3653627Y25469760D01*
X3653633Y25469756D01*
X3657755Y25466376D01*
X3689250Y25448448D01*
X3738555Y25397368D01*
X3752417Y25327738D01*
X3726434Y25261667D01*
X3697284Y25234427D01*
X3693011Y25231550D01*
X3575681Y25152559D01*
X3571824Y25148880D01*
X3571822Y25148878D01*
X3525566Y25104752D01*
X3408865Y24993424D01*
X3405682Y24989146D01*
X3392037Y24970806D01*
X3271246Y24808458D01*
X3268830Y24803707D01*
X3268828Y24803703D01*
X3229515Y24726379D01*
X3166760Y24602949D01*
X3165178Y24597855D01*
X3165177Y24597852D01*
X3149257Y24546581D01*
X3098393Y24382773D01*
X3097692Y24377484D01*
X3072814Y24189776D01*
X3068102Y24154226D01*
X3076751Y23923842D01*
X3124093Y23698209D01*
X3126051Y23693250D01*
X3126052Y23693248D01*
X3204345Y23495000D01*
X3208776Y23483779D01*
X3211543Y23479220D01*
X3211544Y23479217D01*
X3266359Y23388885D01*
X3328377Y23286683D01*
X3331874Y23282653D01*
X3473010Y23120008D01*
X3479477Y23112555D01*
X3515120Y23083330D01*
X3555114Y23024671D01*
X3557046Y22953701D01*
X3520302Y22892952D01*
X3501532Y22878752D01*
X3431304Y22835293D01*
X3355652Y22788478D01*
X3230695Y22663303D01*
X3137885Y22512738D01*
X3127929Y22482721D01*
X3105016Y22413639D01*
X3082203Y22344861D01*
X3071500Y22240400D01*
X3071500Y21584925D01*
X3051498Y21516804D01*
X3034595Y21495830D01*
X1870621Y20331855D01*
X1860478Y20322753D01*
X1830975Y20299032D01*
X1810712Y20274883D01*
X1798709Y20260579D01*
X1795528Y20256931D01*
X1793885Y20255119D01*
X1791691Y20252925D01*
X1764358Y20219651D01*
X1763696Y20218853D01*
X1703846Y20147526D01*
X1701278Y20142856D01*
X1697897Y20138739D01*
X1683249Y20111420D01*
X1654023Y20056914D01*
X1653394Y20055755D01*
X1611538Y19979619D01*
X1611535Y19979611D01*
X1608567Y19974213D01*
X1606955Y19969131D01*
X1604438Y19964437D01*
X1577238Y19875469D01*
X1576918Y19874441D01*
X1548765Y19785694D01*
X1548171Y19780398D01*
X1546613Y19775302D01*
X1537388Y19684482D01*
X1537218Y19682813D01*
X1537089Y19681607D01*
X1531500Y19631773D01*
X1531500Y19628246D01*
X1531445Y19627261D01*
X1530998Y19621581D01*
X1526626Y19578538D01*
X1527206Y19572407D01*
X1530941Y19532891D01*
X1531500Y19521033D01*
X1531500Y6796843D01*
X1530763Y6783236D01*
X1527503Y6753223D01*
X1526676Y6745612D01*
X1527213Y6739477D01*
X1531050Y6695612D01*
X1531379Y6690786D01*
X1531500Y6688314D01*
X1531500Y6685231D01*
X1531801Y6682163D01*
X1535690Y6642494D01*
X1535812Y6641181D01*
X1543913Y6548587D01*
X1545400Y6543468D01*
X1545920Y6538167D01*
X1572791Y6449166D01*
X1573126Y6448033D01*
X1588379Y6395535D01*
X1599091Y6358664D01*
X1601544Y6353932D01*
X1603084Y6348831D01*
X1605978Y6343388D01*
X1646731Y6266740D01*
X1647343Y6265574D01*
X1666890Y6227865D01*
X1690108Y6183074D01*
X1693431Y6178911D01*
X1695934Y6174204D01*
X1754755Y6102082D01*
X1755446Y6101226D01*
X1786738Y6062027D01*
X1789242Y6059523D01*
X1789884Y6058805D01*
X1793585Y6054472D01*
X1820935Y6020938D01*
X1825682Y6017011D01*
X1825684Y6017009D01*
X1856262Y5991713D01*
X1865042Y5983723D01*
X3800931Y4047835D01*
X3809479Y4038376D01*
X3835935Y4005938D01*
X3840682Y4002011D01*
X3840684Y4002009D01*
X3871266Y3976710D01*
X3880046Y3968720D01*
X3880651Y3968115D01*
X3889753Y3957971D01*
X3909604Y3933280D01*
X3909608Y3933276D01*
X3913468Y3928475D01*
X3918192Y3924511D01*
X3951921Y3896209D01*
X3955569Y3893028D01*
X3957381Y3891385D01*
X3959575Y3889191D01*
X3992849Y3861858D01*
X3993647Y3861196D01*
X4064974Y3801346D01*
X4069644Y3798778D01*
X4073761Y3795397D01*
X4091656Y3785802D01*
X4155680Y3751472D01*
X4156838Y3750843D01*
X4232888Y3709035D01*
X4238287Y3706067D01*
X4243365Y3704456D01*
X4248063Y3701937D01*
X4336998Y3674747D01*
X4338202Y3674372D01*
X4426806Y3646265D01*
X4432097Y3645672D01*
X4437198Y3644112D01*
X4529811Y3634705D01*
X4530931Y3634585D01*
X4580727Y3629000D01*
X4584256Y3629000D01*
X4585239Y3628945D01*
X4590923Y3628498D01*
X4615819Y3625969D01*
X4633962Y3624126D01*
X4633963Y3624126D01*
X4679612Y3628441D01*
X4691469Y3629000D01*
X9723642Y3629000D01*
X9791763Y3608998D01*
X9838256Y3555342D01*
X9848360Y3485068D01*
X9825580Y3428942D01*
X9822643Y3424899D01*
X9703795Y3230958D01*
X9699313Y3222163D01*
X9612266Y3012012D01*
X9609217Y3002627D01*
X9556115Y2781446D01*
X9554572Y2771699D01*
X9536725Y2544930D01*
X9536725Y2535070D01*
X9554572Y2308301D01*
X9556115Y2298554D01*
X9609217Y2077373D01*
X9612266Y2067988D01*
X9699313Y1857837D01*
X9703795Y1849042D01*
X9806432Y1681555D01*
X9816890Y1672093D01*
X9825666Y1675876D01*
X10959905Y2810115D01*
X11022217Y2844141D01*
X11093032Y2839076D01*
X11138095Y2810115D01*
X12269290Y1678920D01*
X12281670Y1672160D01*
X12289320Y1677887D01*
X12394205Y1849042D01*
X12398687Y1857837D01*
X12464989Y2017905D01*
X17092001Y2017905D01*
X17092338Y2011386D01*
X17102257Y1915794D01*
X17105149Y1902400D01*
X17156588Y1748216D01*
X17162761Y1735038D01*
X17248063Y1597193D01*
X17257099Y1585792D01*
X17371829Y1471261D01*
X17383240Y1462249D01*
X17521243Y1377184D01*
X17534424Y1371037D01*
X17688710Y1319862D01*
X17702086Y1316995D01*
X17796438Y1307328D01*
X17802854Y1307000D01*
X17827885Y1307000D01*
X17843124Y1311475D01*
X17844329Y1312865D01*
X17846000Y1320548D01*
X17846000Y2267885D01*
X17841525Y2283124D01*
X17840135Y2284329D01*
X17832452Y2286000D01*
X17110116Y2286000D01*
X17094877Y2281525D01*
X17093672Y2280135D01*
X17092001Y2272452D01*
X17092001Y2017905D01*
X12464989Y2017905D01*
X12485734Y2067988D01*
X12488783Y2077373D01*
X12541885Y2298554D01*
X12543428Y2308301D01*
X12561275Y2535070D01*
X12561275Y2544930D01*
X12543428Y2771699D01*
X12541885Y2781446D01*
X12488783Y3002627D01*
X12485734Y3012012D01*
X12398687Y3222163D01*
X12394205Y3230958D01*
X12275357Y3424899D01*
X12272420Y3428942D01*
X12248563Y3495810D01*
X12264646Y3564961D01*
X12315561Y3614440D01*
X12374358Y3629000D01*
X17112327Y3629000D01*
X17180448Y3608998D01*
X17226941Y3555342D01*
X17237045Y3485068D01*
X17219587Y3436885D01*
X17162186Y3343762D01*
X17156037Y3330576D01*
X17104862Y3176290D01*
X17101995Y3162914D01*
X17092328Y3068562D01*
X17092000Y3062145D01*
X17092000Y2812115D01*
X17096475Y2796876D01*
X17097865Y2795671D01*
X17105548Y2794000D01*
X18228000Y2794000D01*
X18296121Y2773998D01*
X18342614Y2720342D01*
X18354000Y2668000D01*
X18354000Y1325116D01*
X18358475Y1309877D01*
X18359865Y1308672D01*
X18367548Y1307001D01*
X18397095Y1307001D01*
X18403614Y1307338D01*
X18499206Y1317257D01*
X18512600Y1320149D01*
X18666784Y1371588D01*
X18679962Y1377761D01*
X18817807Y1463063D01*
X18829208Y1472099D01*
X18943738Y1586828D01*
X18950794Y1595762D01*
X19008712Y1636823D01*
X19079635Y1640053D01*
X19141046Y1604426D01*
X19147846Y1596593D01*
X19151522Y1590652D01*
X19276697Y1465695D01*
X19282927Y1461855D01*
X19282928Y1461854D01*
X19420288Y1377184D01*
X19427262Y1372885D01*
X19507005Y1346436D01*
X19588611Y1319368D01*
X19588613Y1319368D01*
X19595139Y1317203D01*
X19601975Y1316503D01*
X19601978Y1316502D01*
X19645031Y1312091D01*
X19699600Y1306500D01*
X20300400Y1306500D01*
X20303646Y1306837D01*
X20303650Y1306837D01*
X20399308Y1316762D01*
X20399312Y1316763D01*
X20406166Y1317474D01*
X20412702Y1319655D01*
X20412704Y1319655D01*
X20559319Y1368570D01*
X20573946Y1373450D01*
X20724348Y1466522D01*
X20849305Y1591697D01*
X20898862Y1672093D01*
X20938275Y1736032D01*
X20938276Y1736034D01*
X20942115Y1742262D01*
X20970061Y1826517D01*
X20995632Y1903611D01*
X20995632Y1903613D01*
X20997797Y1910139D01*
X21008500Y2014600D01*
X21008500Y2070075D01*
X21028502Y2138196D01*
X21045405Y2159170D01*
X21140835Y2254600D01*
X25126500Y2254600D01*
X25126837Y2251354D01*
X25126837Y2251350D01*
X25136402Y2159170D01*
X25137474Y2148834D01*
X25193450Y1981054D01*
X25286522Y1830652D01*
X25411697Y1705695D01*
X25417927Y1701855D01*
X25417928Y1701854D01*
X25555090Y1617306D01*
X25562262Y1612885D01*
X25640822Y1586828D01*
X25723611Y1559368D01*
X25723613Y1559368D01*
X25730139Y1557203D01*
X25736975Y1556503D01*
X25736978Y1556502D01*
X25780031Y1552091D01*
X25834600Y1546500D01*
X27285400Y1546500D01*
X27288646Y1546837D01*
X27288650Y1546837D01*
X27384308Y1556762D01*
X27384312Y1556763D01*
X27391166Y1557474D01*
X27397702Y1559655D01*
X27397704Y1559655D01*
X27533244Y1604875D01*
X27558946Y1613450D01*
X27709348Y1706522D01*
X27834305Y1831697D01*
X27882658Y1910139D01*
X27923275Y1976032D01*
X27923276Y1976034D01*
X27927115Y1982262D01*
X27982797Y2150139D01*
X27983723Y2159170D01*
X27993172Y2251402D01*
X27993500Y2254600D01*
X27993500Y2980000D01*
X35146526Y2980000D01*
X35166391Y2727597D01*
X35167545Y2722790D01*
X35167546Y2722784D01*
X35199060Y2591521D01*
X35225495Y2481409D01*
X35227388Y2476838D01*
X35227389Y2476836D01*
X35318110Y2257817D01*
X35322384Y2247498D01*
X35454672Y2031624D01*
X35619102Y1839102D01*
X35811624Y1674672D01*
X36027498Y1542384D01*
X36032068Y1540491D01*
X36032072Y1540489D01*
X36256836Y1447389D01*
X36261409Y1445495D01*
X36346032Y1425179D01*
X36502784Y1387546D01*
X36502790Y1387545D01*
X36507597Y1386391D01*
X36607416Y1378535D01*
X36694345Y1371693D01*
X36694352Y1371693D01*
X36696801Y1371500D01*
X36823199Y1371500D01*
X36825648Y1371693D01*
X36825655Y1371693D01*
X36912584Y1378535D01*
X37012403Y1386391D01*
X37017210Y1387545D01*
X37017216Y1387546D01*
X37173968Y1425179D01*
X37258591Y1445495D01*
X37263164Y1447389D01*
X37487928Y1540489D01*
X37487932Y1540491D01*
X37492502Y1542384D01*
X37708376Y1674672D01*
X37900898Y1839102D01*
X38065328Y2031624D01*
X38197616Y2247498D01*
X38201891Y2257817D01*
X38292611Y2476836D01*
X38292612Y2476838D01*
X38294505Y2481409D01*
X38320940Y2591521D01*
X38352454Y2722784D01*
X38352455Y2722790D01*
X38353609Y2727597D01*
X38373474Y2980000D01*
X38353609Y3232403D01*
X38294505Y3478591D01*
X38262714Y3555342D01*
X38199511Y3707928D01*
X38199509Y3707932D01*
X38197616Y3712502D01*
X38065328Y3928376D01*
X37900898Y4120898D01*
X37708376Y4285328D01*
X37492502Y4417616D01*
X37487932Y4419509D01*
X37487928Y4419511D01*
X37263164Y4512611D01*
X37263162Y4512612D01*
X37258591Y4514505D01*
X37173968Y4534821D01*
X37017216Y4572454D01*
X37017210Y4572455D01*
X37012403Y4573609D01*
X36912584Y4581465D01*
X36825655Y4588307D01*
X36825648Y4588307D01*
X36823199Y4588500D01*
X36696801Y4588500D01*
X36694352Y4588307D01*
X36694345Y4588307D01*
X36607416Y4581465D01*
X36507597Y4573609D01*
X36502790Y4572455D01*
X36502784Y4572454D01*
X36346032Y4534821D01*
X36261409Y4514505D01*
X36256838Y4512612D01*
X36256836Y4512611D01*
X36032072Y4419511D01*
X36032068Y4419509D01*
X36027498Y4417616D01*
X35811624Y4285328D01*
X35619102Y4120898D01*
X35454672Y3928376D01*
X35322384Y3712502D01*
X35320491Y3707932D01*
X35320489Y3707928D01*
X35257286Y3555342D01*
X35225495Y3478591D01*
X35166391Y3232403D01*
X35146526Y2980000D01*
X27993500Y2980000D01*
X27993500Y3705400D01*
X27984175Y3795275D01*
X27983238Y3804308D01*
X27983237Y3804312D01*
X27982526Y3811166D01*
X27965569Y3861994D01*
X27931774Y3963288D01*
X27926550Y3978946D01*
X27833478Y4129348D01*
X27708303Y4254305D01*
X27653786Y4287910D01*
X27563968Y4343275D01*
X27563966Y4343276D01*
X27557738Y4347115D01*
X27397254Y4400345D01*
X27396389Y4400632D01*
X27396387Y4400632D01*
X27389861Y4402797D01*
X27383025Y4403497D01*
X27383022Y4403498D01*
X27339969Y4407909D01*
X27285400Y4413500D01*
X25834600Y4413500D01*
X25831354Y4413163D01*
X25831350Y4413163D01*
X25735692Y4403238D01*
X25735688Y4403237D01*
X25728834Y4402526D01*
X25722298Y4400345D01*
X25722296Y4400345D01*
X25590194Y4356272D01*
X25561054Y4346550D01*
X25410652Y4253478D01*
X25285695Y4128303D01*
X25281855Y4122073D01*
X25281854Y4122072D01*
X25235596Y4047027D01*
X25192885Y3977738D01*
X25137203Y3809861D01*
X25136503Y3803025D01*
X25136502Y3803022D01*
X25135423Y3792490D01*
X25126500Y3705400D01*
X25126500Y2254600D01*
X21140835Y2254600D01*
X21181884Y2295649D01*
X21192027Y2304751D01*
X21216718Y2324603D01*
X21221525Y2328468D01*
X21253812Y2366946D01*
X21256967Y2370562D01*
X21258623Y2372388D01*
X21260809Y2374574D01*
X21262764Y2376954D01*
X21262773Y2376964D01*
X21288076Y2407768D01*
X21288918Y2408783D01*
X21344694Y2475255D01*
X21348654Y2479974D01*
X21351223Y2484648D01*
X21354602Y2488761D01*
X21398475Y2570585D01*
X21399084Y2571707D01*
X21440964Y2647886D01*
X21440965Y2647888D01*
X21443933Y2653287D01*
X21445545Y2658369D01*
X21448062Y2663063D01*
X21475262Y2752031D01*
X21475608Y2753142D01*
X21482225Y2773998D01*
X21503735Y2841806D01*
X21504329Y2847102D01*
X21505887Y2852198D01*
X21515290Y2944757D01*
X21515411Y2945893D01*
X21521000Y2995727D01*
X21521000Y2999254D01*
X21521055Y3000239D01*
X21521502Y3005919D01*
X21525874Y3048962D01*
X21521559Y3094609D01*
X21521000Y3106467D01*
X21521000Y4577627D01*
X21521690Y4590797D01*
X21525211Y4624296D01*
X21525211Y4624298D01*
X21525855Y4630425D01*
X21521519Y4678070D01*
X21521000Y4689490D01*
X21521000Y5578625D01*
X21527407Y5618292D01*
X21570632Y5748611D01*
X21570632Y5748613D01*
X21572797Y5755139D01*
X21574782Y5774506D01*
X21581802Y5843032D01*
X21583500Y5859600D01*
X21583500Y7215144D01*
X25122016Y7215144D01*
X25122313Y7209992D01*
X25122313Y7209988D01*
X25135288Y6984971D01*
X25135289Y6984965D01*
X25135586Y6979812D01*
X25146241Y6932531D01*
X25179886Y6783236D01*
X25187408Y6749856D01*
X25189352Y6745070D01*
X25189353Y6745065D01*
X25268642Y6549801D01*
X25276093Y6531452D01*
X25399258Y6330465D01*
X25553595Y6152293D01*
X25734960Y6001721D01*
X25739412Y5999119D01*
X25739417Y5999116D01*
X25927598Y5889152D01*
X25938482Y5882792D01*
X26158696Y5798701D01*
X26163762Y5797670D01*
X26163763Y5797670D01*
X26226811Y5784843D01*
X26389686Y5751706D01*
X26522389Y5746840D01*
X26620087Y5743257D01*
X26620091Y5743257D01*
X26625251Y5743068D01*
X26630371Y5743724D01*
X26630373Y5743724D01*
X26719480Y5755139D01*
X26859063Y5773020D01*
X26864012Y5774505D01*
X26864018Y5774506D01*
X27000814Y5815547D01*
X27084844Y5840757D01*
X27118521Y5857255D01*
X27183630Y5889152D01*
X27296529Y5944461D01*
X27300732Y5947459D01*
X27300737Y5947462D01*
X27484231Y6078347D01*
X27484233Y6078349D01*
X27488435Y6081346D01*
X27502723Y6095584D01*
X27542027Y6134751D01*
X27604399Y6168667D01*
X27630967Y6171500D01*
X28263157Y6171500D01*
X28276764Y6170763D01*
X28308262Y6167341D01*
X28308267Y6167341D01*
X28314388Y6166676D01*
X28340638Y6168973D01*
X28364388Y6171050D01*
X28369214Y6171379D01*
X28371686Y6171500D01*
X28374769Y6171500D01*
X28386738Y6172674D01*
X28417506Y6175690D01*
X28418819Y6175812D01*
X28463084Y6179685D01*
X28511413Y6183913D01*
X28516532Y6185400D01*
X28521833Y6185920D01*
X28610834Y6212791D01*
X28611967Y6213126D01*
X28695414Y6237370D01*
X28695418Y6237372D01*
X28701336Y6239091D01*
X28706068Y6241544D01*
X28711169Y6243084D01*
X28753468Y6265574D01*
X28793260Y6286731D01*
X28794426Y6287343D01*
X28871453Y6327271D01*
X28876926Y6330108D01*
X28881089Y6333431D01*
X28885796Y6335934D01*
X28957918Y6394755D01*
X28958774Y6395446D01*
X28997973Y6426738D01*
X29000477Y6429242D01*
X29001195Y6429884D01*
X29005528Y6433585D01*
X29039062Y6460935D01*
X29068288Y6496263D01*
X29076277Y6505042D01*
X29751235Y7180000D01*
X35146526Y7180000D01*
X35166391Y6927597D01*
X35225495Y6681409D01*
X35227388Y6676838D01*
X35227389Y6676836D01*
X35318431Y6457042D01*
X35322384Y6447498D01*
X35454672Y6231624D01*
X35593935Y6068569D01*
X35605994Y6054450D01*
X35619102Y6039102D01*
X35811624Y5874672D01*
X36027498Y5742384D01*
X36032068Y5740491D01*
X36032072Y5740489D01*
X36256836Y5647389D01*
X36261409Y5645495D01*
X36346032Y5625179D01*
X36502784Y5587546D01*
X36502790Y5587545D01*
X36507597Y5586391D01*
X36606271Y5578625D01*
X36694345Y5571693D01*
X36694352Y5571693D01*
X36696801Y5571500D01*
X36823199Y5571500D01*
X36825648Y5571693D01*
X36825655Y5571693D01*
X36913729Y5578625D01*
X37012403Y5586391D01*
X37017210Y5587545D01*
X37017216Y5587546D01*
X37173968Y5625179D01*
X37258591Y5645495D01*
X37263164Y5647389D01*
X37487928Y5740489D01*
X37487932Y5740491D01*
X37492502Y5742384D01*
X37708376Y5874672D01*
X37900898Y6039102D01*
X37914007Y6054450D01*
X37926065Y6068569D01*
X38065328Y6231624D01*
X38197616Y6447498D01*
X38201570Y6457042D01*
X38292611Y6676836D01*
X38292612Y6676838D01*
X38294505Y6681409D01*
X38353609Y6927597D01*
X38373474Y7180000D01*
X38353609Y7432403D01*
X38348301Y7454515D01*
X38295660Y7673779D01*
X38294505Y7678591D01*
X38292611Y7683164D01*
X38199511Y7907928D01*
X38199509Y7907932D01*
X38197616Y7912502D01*
X38065328Y8128376D01*
X37900898Y8320898D01*
X37708376Y8485328D01*
X37492502Y8617616D01*
X37487932Y8619509D01*
X37487928Y8619511D01*
X37263164Y8712611D01*
X37263162Y8712612D01*
X37258591Y8714505D01*
X37173968Y8734821D01*
X37017216Y8772454D01*
X37017210Y8772455D01*
X37012403Y8773609D01*
X36912584Y8781465D01*
X36825655Y8788307D01*
X36825648Y8788307D01*
X36823199Y8788500D01*
X36696801Y8788500D01*
X36694352Y8788307D01*
X36694345Y8788307D01*
X36607416Y8781465D01*
X36507597Y8773609D01*
X36502790Y8772455D01*
X36502784Y8772454D01*
X36346032Y8734821D01*
X36261409Y8714505D01*
X36256838Y8712612D01*
X36256836Y8712611D01*
X36032072Y8619511D01*
X36032068Y8619509D01*
X36027498Y8617616D01*
X35811624Y8485328D01*
X35619102Y8320898D01*
X35454672Y8128376D01*
X35322384Y7912502D01*
X35320491Y7907932D01*
X35320489Y7907928D01*
X35227389Y7683164D01*
X35225495Y7678591D01*
X35224340Y7673779D01*
X35171700Y7454515D01*
X35166391Y7432403D01*
X35146526Y7180000D01*
X29751235Y7180000D01*
X35015829Y12444595D01*
X35078141Y12478621D01*
X35104924Y12481500D01*
X37733134Y12481500D01*
X37795316Y12488255D01*
X37931705Y12539385D01*
X38048261Y12626739D01*
X38135615Y12743295D01*
X38186745Y12879684D01*
X38193500Y12941866D01*
X38193500Y17538134D01*
X38186745Y17600316D01*
X38135615Y17736705D01*
X38048261Y17853261D01*
X37931705Y17940615D01*
X37795316Y17991745D01*
X37733134Y17998500D01*
X35036866Y17998500D01*
X34974684Y17991745D01*
X34838295Y17940615D01*
X34721739Y17853261D01*
X34634385Y17736705D01*
X34583255Y17600316D01*
X34576500Y17538134D01*
X34576500Y14909925D01*
X34556498Y14841804D01*
X34539595Y14820830D01*
X27944171Y8225405D01*
X27881859Y8191379D01*
X27855076Y8188500D01*
X27636271Y8188500D01*
X27568150Y8208502D01*
X27548612Y8225021D01*
X27548256Y8224639D01*
X27544472Y8228168D01*
X27540995Y8231989D01*
X27536944Y8235188D01*
X27536940Y8235192D01*
X27360061Y8374883D01*
X27360057Y8374885D01*
X27356006Y8378085D01*
X27149639Y8492005D01*
X27144770Y8493729D01*
X27144766Y8493731D01*
X26932311Y8568965D01*
X26932307Y8568966D01*
X26927436Y8570691D01*
X26922343Y8571598D01*
X26922340Y8571599D01*
X26700456Y8611123D01*
X26700450Y8611124D01*
X26695367Y8612029D01*
X26604523Y8613139D01*
X26464830Y8614846D01*
X26464828Y8614846D01*
X26459661Y8614909D01*
X26226651Y8579253D01*
X26002593Y8506020D01*
X25970870Y8489506D01*
X25870528Y8437271D01*
X25793504Y8397175D01*
X25789371Y8394072D01*
X25789368Y8394070D01*
X25609135Y8258747D01*
X25605000Y8255642D01*
X25582397Y8231989D01*
X25452791Y8096365D01*
X25442143Y8085223D01*
X25309307Y7890492D01*
X25307133Y7885808D01*
X25307131Y7885805D01*
X25249687Y7762051D01*
X25210059Y7676681D01*
X25147065Y7449532D01*
X25146516Y7444395D01*
X25122718Y7221711D01*
X25122016Y7215144D01*
X21583500Y7215144D01*
X21583500Y8110400D01*
X21573371Y8208022D01*
X21573238Y8209308D01*
X21573237Y8209312D01*
X21572526Y8216166D01*
X21564976Y8238796D01*
X21558500Y8278672D01*
X21558500Y9080500D01*
X21578502Y9148621D01*
X21632158Y9195114D01*
X21684500Y9206500D01*
X23618157Y9206500D01*
X23631764Y9205763D01*
X23663262Y9202341D01*
X23663267Y9202341D01*
X23669388Y9201676D01*
X23695638Y9203973D01*
X23719388Y9206050D01*
X23724214Y9206379D01*
X23726686Y9206500D01*
X23729769Y9206500D01*
X23741738Y9207674D01*
X23772506Y9210690D01*
X23773819Y9210812D01*
X23818084Y9214685D01*
X23866413Y9218913D01*
X23871532Y9220400D01*
X23876833Y9220920D01*
X23965834Y9247791D01*
X23966967Y9248126D01*
X24050414Y9272370D01*
X24050418Y9272372D01*
X24056336Y9274091D01*
X24061068Y9276544D01*
X24066169Y9278084D01*
X24071612Y9280978D01*
X24148260Y9321731D01*
X24149426Y9322343D01*
X24226453Y9362271D01*
X24231926Y9365108D01*
X24236089Y9368431D01*
X24240796Y9370934D01*
X24312918Y9429755D01*
X24313774Y9430446D01*
X24352973Y9461738D01*
X24355477Y9464242D01*
X24356195Y9464884D01*
X24360528Y9468585D01*
X24394062Y9495935D01*
X24423288Y9531263D01*
X24431277Y9540042D01*
X24460830Y9569595D01*
X24523142Y9603621D01*
X24549925Y9606500D01*
X24728134Y9606500D01*
X24790316Y9613255D01*
X24926705Y9664385D01*
X25043261Y9751739D01*
X25130615Y9868295D01*
X25181745Y10004684D01*
X25188500Y10066866D01*
X25188500Y11263134D01*
X25181745Y11325316D01*
X25130615Y11461705D01*
X25043261Y11578261D01*
X24926705Y11665615D01*
X24790316Y11716745D01*
X24728134Y11723500D01*
X23531866Y11723500D01*
X23469684Y11716745D01*
X23333295Y11665615D01*
X23216739Y11578261D01*
X23129385Y11461705D01*
X23126233Y11453297D01*
X23081029Y11332715D01*
X23078255Y11325316D01*
X23077628Y11319547D01*
X23042874Y11258709D01*
X22979919Y11225887D01*
X22955507Y11223500D01*
X21404802Y11223500D01*
X21336681Y11243502D01*
X21303976Y11273935D01*
X21268642Y11321081D01*
X21263261Y11328261D01*
X21146705Y11415615D01*
X21010316Y11466745D01*
X20948134Y11473500D01*
X20151866Y11473500D01*
X20089684Y11466745D01*
X19953295Y11415615D01*
X19836739Y11328261D01*
X19749385Y11211705D01*
X19698255Y11075316D01*
X19691500Y11013134D01*
X19691500Y10779585D01*
X19676338Y10719660D01*
X19664651Y10698044D01*
X19664278Y10697362D01*
X19621538Y10619620D01*
X19621533Y10619608D01*
X19618567Y10614213D01*
X19617494Y10610830D01*
X19615802Y10607701D01*
X19604294Y10570524D01*
X19587725Y10516998D01*
X19587462Y10516158D01*
X19565524Y10447000D01*
X19558765Y10425694D01*
X19558369Y10422163D01*
X19557318Y10418768D01*
X19549821Y10347434D01*
X19547396Y10324362D01*
X19547311Y10323579D01*
X19541500Y10271773D01*
X19541500Y10269200D01*
X19541180Y10265224D01*
X19536645Y10222075D01*
X19537204Y10215935D01*
X19540981Y10174430D01*
X19541500Y10163010D01*
X19541500Y8472985D01*
X19522759Y8406868D01*
X19511726Y8388970D01*
X19511724Y8388967D01*
X19507885Y8382738D01*
X19505581Y8375791D01*
X19464490Y8251904D01*
X19452203Y8214861D01*
X19451503Y8208025D01*
X19451502Y8208022D01*
X19449797Y8191379D01*
X19441500Y8110400D01*
X19441500Y5859600D01*
X19441837Y5856354D01*
X19441837Y5856350D01*
X19449240Y5785004D01*
X19436375Y5715183D01*
X19387804Y5663400D01*
X19323913Y5646000D01*
X18776184Y5646000D01*
X18708063Y5666002D01*
X18661570Y5719658D01*
X18650840Y5784843D01*
X18650857Y5785004D01*
X18658500Y5859600D01*
X18658500Y8110400D01*
X18648371Y8208022D01*
X18648238Y8209308D01*
X18648237Y8209312D01*
X18647526Y8216166D01*
X18641179Y8235192D01*
X18593868Y8376998D01*
X18591550Y8383946D01*
X18577356Y8406883D01*
X18558500Y8473186D01*
X18558500Y10264769D01*
X18557814Y10271773D01*
X18544681Y10405699D01*
X18544080Y10411833D01*
X18540844Y10422553D01*
X18496168Y10570524D01*
X18486916Y10601169D01*
X18425100Y10717429D01*
X18423248Y10720912D01*
X18408500Y10780065D01*
X18408500Y11013134D01*
X18401745Y11075316D01*
X18350615Y11211705D01*
X18263261Y11328261D01*
X18146705Y11415615D01*
X18010316Y11466745D01*
X17948134Y11473500D01*
X17151866Y11473500D01*
X17089684Y11466745D01*
X16953295Y11415615D01*
X16836739Y11328261D01*
X16749385Y11211705D01*
X16698255Y11075316D01*
X16691500Y11013134D01*
X16691500Y10779230D01*
X16675915Y10718530D01*
X16624481Y10624970D01*
X16618567Y10614213D01*
X16616703Y10608338D01*
X16616702Y10608335D01*
X16565628Y10447328D01*
X16558765Y10425694D01*
X16541500Y10271773D01*
X16541500Y8278316D01*
X16535093Y8238649D01*
X16533947Y8235192D01*
X16527203Y8214861D01*
X16526503Y8208025D01*
X16526502Y8208022D01*
X16516827Y8113594D01*
X16516500Y8110400D01*
X16515886Y8110463D01*
X16493354Y8046066D01*
X16437398Y8002368D01*
X16390965Y7993500D01*
X16046734Y7993500D01*
X15978613Y8013502D01*
X15947784Y8041494D01*
X15913311Y8085223D01*
X15868171Y8142483D01*
X15765787Y8238796D01*
X15686610Y8313278D01*
X15686608Y8313280D01*
X15683209Y8316477D01*
X15566883Y8397175D01*
X15478393Y8458563D01*
X15478390Y8458565D01*
X15474561Y8461221D01*
X15470384Y8463281D01*
X15470377Y8463285D01*
X15250996Y8571472D01*
X15250992Y8571473D01*
X15246810Y8573536D01*
X15004960Y8650953D01*
X15000355Y8651703D01*
X14758935Y8691020D01*
X14758934Y8691020D01*
X14754323Y8691771D01*
X14627365Y8693433D01*
X14505083Y8695034D01*
X14505080Y8695034D01*
X14500406Y8695095D01*
X14248787Y8660851D01*
X14004993Y8589792D01*
X13774380Y8483478D01*
X13770471Y8480915D01*
X13565928Y8346811D01*
X13565923Y8346807D01*
X13562015Y8344245D01*
X13488547Y8278672D01*
X13409928Y8208502D01*
X13372562Y8175152D01*
X13210183Y7979913D01*
X13078447Y7762818D01*
X13076638Y7758504D01*
X13076637Y7758502D01*
X12990153Y7552260D01*
X12980246Y7528635D01*
X12917738Y7282510D01*
X12892296Y7029849D01*
X12892520Y7025183D01*
X12892520Y7025178D01*
X12894942Y6974768D01*
X12904480Y6776202D01*
X12921229Y6691998D01*
X12953001Y6532272D01*
X12954021Y6527143D01*
X12955600Y6522745D01*
X12955602Y6522738D01*
X13024764Y6330108D01*
X13039831Y6288142D01*
X13042048Y6284016D01*
X13143296Y6095584D01*
X13160025Y6064449D01*
X13162820Y6060706D01*
X13162822Y6060703D01*
X13303667Y5872090D01*
X13311963Y5860980D01*
X13315290Y5857682D01*
X13317912Y5854666D01*
X13347508Y5790132D01*
X13337518Y5719842D01*
X13291111Y5666112D01*
X13222820Y5646000D01*
X12170500Y5646000D01*
X12102379Y5666002D01*
X12055886Y5719658D01*
X12044500Y5772000D01*
X12044500Y5793341D01*
X12064502Y5861462D01*
X12088669Y5889152D01*
X12115213Y5911823D01*
X12118969Y5915031D01*
X12273176Y6095584D01*
X12275755Y6099792D01*
X12275759Y6099798D01*
X12394654Y6293817D01*
X12397240Y6298037D01*
X12409056Y6326562D01*
X12486211Y6512833D01*
X12486212Y6512835D01*
X12488105Y6517406D01*
X12528634Y6686221D01*
X12542380Y6743476D01*
X12542381Y6743482D01*
X12543535Y6748289D01*
X12562165Y6985000D01*
X12543535Y7221711D01*
X12528939Y7282510D01*
X12489260Y7447782D01*
X12488105Y7452594D01*
X12486211Y7457167D01*
X12399135Y7667389D01*
X12399133Y7667393D01*
X12397240Y7671963D01*
X12339112Y7766819D01*
X12275759Y7870202D01*
X12275755Y7870208D01*
X12273176Y7874416D01*
X12118969Y8054969D01*
X12113938Y8059266D01*
X12088669Y8080848D01*
X12049860Y8140299D01*
X12044500Y8176659D01*
X12044500Y10338140D01*
X12064502Y10406261D01*
X12118158Y10452754D01*
X12188432Y10462858D01*
X12198014Y10460600D01*
X12198089Y10460951D01*
X12218190Y10456642D01*
X12309097Y10447328D01*
X12314126Y10447071D01*
X12329124Y10451475D01*
X12330329Y10452865D01*
X12332000Y10460548D01*
X12332000Y10465115D01*
X12840000Y10465115D01*
X12844475Y10449876D01*
X12845865Y10448671D01*
X12853548Y10447000D01*
X12856438Y10447000D01*
X12862953Y10447337D01*
X12955057Y10456894D01*
X12968456Y10459788D01*
X13117107Y10509381D01*
X13130286Y10515555D01*
X13263173Y10597788D01*
X13274574Y10606824D01*
X13384986Y10717429D01*
X13393998Y10728840D01*
X13476004Y10861880D01*
X13482151Y10875061D01*
X13531491Y11023814D01*
X13534358Y11037190D01*
X13543672Y11128097D01*
X13544000Y11134513D01*
X13544000Y11157885D01*
X13539525Y11173124D01*
X13538135Y11174329D01*
X13530452Y11176000D01*
X12858115Y11176000D01*
X12842876Y11171525D01*
X12841671Y11170135D01*
X12840000Y11162452D01*
X12840000Y10465115D01*
X12332000Y10465115D01*
X12332000Y11702115D01*
X12840000Y11702115D01*
X12844475Y11686876D01*
X12845865Y11685671D01*
X12853548Y11684000D01*
X13525885Y11684000D01*
X13541124Y11688475D01*
X13542329Y11689865D01*
X13544000Y11697548D01*
X13544000Y11725438D01*
X13543663Y11731953D01*
X13534106Y11824057D01*
X13531212Y11837456D01*
X13481619Y11986107D01*
X13475445Y11999286D01*
X13393212Y12132173D01*
X13384176Y12143574D01*
X13273571Y12253986D01*
X13262160Y12262998D01*
X13129120Y12345004D01*
X13115939Y12351151D01*
X12967186Y12400491D01*
X12953810Y12403358D01*
X12862903Y12412672D01*
X12857874Y12412929D01*
X12842876Y12408525D01*
X12841671Y12407135D01*
X12840000Y12399452D01*
X12840000Y11702115D01*
X12332000Y11702115D01*
X12332000Y12394885D01*
X12327525Y12410124D01*
X12326135Y12411329D01*
X12318452Y12413000D01*
X12315562Y12413000D01*
X12309047Y12412663D01*
X12216944Y12403106D01*
X12211102Y12401844D01*
X12140294Y12407013D01*
X12083521Y12449644D01*
X12058808Y12516200D01*
X12058500Y12525004D01*
X12058500Y12878411D01*
X12078502Y12946532D01*
X12083674Y12953976D01*
X12131063Y13017207D01*
X12150615Y13043295D01*
X12201745Y13179684D01*
X12208500Y13241866D01*
X12208500Y14238134D01*
X12201745Y14300316D01*
X12150615Y14436705D01*
X12063261Y14553261D01*
X11946705Y14640615D01*
X11810316Y14691745D01*
X11748134Y14698500D01*
X11383248Y14698500D01*
X11345989Y14704135D01*
X11327956Y14709717D01*
X11253768Y14732682D01*
X11247643Y14733326D01*
X11247642Y14733326D01*
X11063204Y14752711D01*
X11063202Y14752711D01*
X11057075Y14753355D01*
X10974576Y14745847D01*
X10866251Y14735989D01*
X10866248Y14735988D01*
X10860112Y14735430D01*
X10854206Y14733692D01*
X10854202Y14733691D01*
X10752050Y14703626D01*
X10716475Y14698500D01*
X10351866Y14698500D01*
X10289684Y14691745D01*
X10153295Y14640615D01*
X10036739Y14553261D01*
X9949385Y14436705D01*
X9898255Y14300316D01*
X9891500Y14238134D01*
X9891500Y13241866D01*
X9898255Y13179684D01*
X9949385Y13043295D01*
X9968937Y13017207D01*
X10016326Y12953976D01*
X10041174Y12887470D01*
X10041500Y12878411D01*
X10041500Y11625730D01*
X10040855Y11612997D01*
X10033218Y11537813D01*
X10033089Y11536607D01*
X10027500Y11486773D01*
X10027500Y11483246D01*
X10027445Y11482261D01*
X10026998Y11476581D01*
X10022626Y11433538D01*
X10026507Y11392479D01*
X10026941Y11387891D01*
X10027500Y11376033D01*
X10027500Y8154453D01*
X10007498Y8086332D01*
X9986132Y8061850D01*
X9986296Y8061686D01*
X9983876Y8059266D01*
X9983334Y8058645D01*
X9982792Y8058182D01*
X9982787Y8058177D01*
X9979031Y8054969D01*
X9824824Y7874416D01*
X9822245Y7870208D01*
X9822241Y7870202D01*
X9758888Y7766819D01*
X9700760Y7671963D01*
X9698867Y7667393D01*
X9698865Y7667389D01*
X9611789Y7457167D01*
X9609895Y7452594D01*
X9608740Y7447782D01*
X9569062Y7282510D01*
X9554465Y7221711D01*
X9535835Y6985000D01*
X9554465Y6748289D01*
X9555619Y6743482D01*
X9555620Y6743476D01*
X9569366Y6686221D01*
X9609895Y6517406D01*
X9611788Y6512835D01*
X9611789Y6512833D01*
X9688945Y6326562D01*
X9700760Y6298037D01*
X9703346Y6293817D01*
X9822241Y6099798D01*
X9822245Y6099792D01*
X9824824Y6095584D01*
X9979031Y5915031D01*
X9982786Y5911824D01*
X9982792Y5911818D01*
X9983334Y5911355D01*
X9983482Y5911128D01*
X9986296Y5908314D01*
X9985705Y5907723D01*
X10022141Y5851903D01*
X10027500Y5815547D01*
X10027500Y5772000D01*
X10007498Y5703879D01*
X9953842Y5657386D01*
X9901500Y5646000D01*
X6164500Y5646000D01*
X6096379Y5666002D01*
X6049886Y5719658D01*
X6038500Y5772000D01*
X6038500Y6425400D01*
X6034813Y6460935D01*
X6028238Y6524308D01*
X6028237Y6524312D01*
X6027526Y6531166D01*
X6025191Y6538167D01*
X5981272Y6669806D01*
X5971550Y6698946D01*
X5878478Y6849348D01*
X5753303Y6974305D01*
X5743951Y6980070D01*
X5655644Y7034503D01*
X5607660Y7064081D01*
X5560168Y7116852D01*
X5548744Y7186924D01*
X5577018Y7252048D01*
X5586805Y7262510D01*
X5697278Y7367897D01*
X5701135Y7371576D01*
X5838754Y7556542D01*
X5943240Y7762051D01*
X6011607Y7982227D01*
X6028162Y8107134D01*
X6041198Y8205489D01*
X6041198Y8205494D01*
X6041898Y8210774D01*
X6041500Y8221389D01*
X6034900Y8397175D01*
X6033249Y8441158D01*
X6024370Y8483478D01*
X5987002Y8661572D01*
X5985907Y8666791D01*
X5975735Y8692548D01*
X5969315Y8763253D01*
X6003831Y8827926D01*
X7377253Y10201348D01*
X7385539Y10208888D01*
X7392018Y10213000D01*
X7438644Y10262652D01*
X7441398Y10265493D01*
X7461135Y10285230D01*
X7463615Y10288427D01*
X7471320Y10297449D01*
X7496159Y10323900D01*
X7501586Y10329679D01*
X7505405Y10336625D01*
X7505407Y10336628D01*
X7511348Y10347434D01*
X7522199Y10363953D01*
X7529758Y10373699D01*
X7534614Y10379959D01*
X7537759Y10387228D01*
X7537762Y10387232D01*
X7552174Y10420537D01*
X7557391Y10431187D01*
X7578695Y10469940D01*
X7583733Y10489563D01*
X7590137Y10508266D01*
X7595033Y10519580D01*
X7595033Y10519581D01*
X7598181Y10526855D01*
X7599420Y10534678D01*
X7599423Y10534688D01*
X7605099Y10570524D01*
X7607505Y10582144D01*
X7616528Y10617289D01*
X7616528Y10617290D01*
X7618500Y10624970D01*
X7618500Y10645224D01*
X7620051Y10664935D01*
X7621980Y10677114D01*
X7623220Y10684943D01*
X7619059Y10728962D01*
X7618500Y10740819D01*
X7618500Y23815405D01*
X7638502Y23883526D01*
X7655405Y23904501D01*
X8480501Y24729596D01*
X8542813Y24763621D01*
X8569596Y24766500D01*
X9260200Y24766500D01*
X9328321Y24746498D01*
X9374814Y24692842D01*
X9384918Y24622568D01*
X9369319Y24577500D01*
X9345352Y24535988D01*
X9325473Y24501556D01*
X9266458Y24319928D01*
X9265768Y24313367D01*
X9265768Y24313365D01*
X9255715Y24217711D01*
X9246496Y24130000D01*
X9247186Y24123435D01*
X9255926Y24040283D01*
X9266458Y23940072D01*
X9325473Y23758444D01*
X9328776Y23752722D01*
X9328777Y23752721D01*
X9362686Y23693990D01*
X9420960Y23593056D01*
X9425378Y23588149D01*
X9425379Y23588148D01*
X9519353Y23483779D01*
X9548747Y23451134D01*
X9647843Y23379136D01*
X9658296Y23371542D01*
X9703248Y23338882D01*
X9709276Y23336198D01*
X9709278Y23336197D01*
X9834554Y23280421D01*
X9877712Y23261206D01*
X9971112Y23241353D01*
X10058056Y23222872D01*
X10058061Y23222872D01*
X10064513Y23221500D01*
X10255487Y23221500D01*
X10261939Y23222872D01*
X10261944Y23222872D01*
X10348888Y23241353D01*
X10442288Y23261206D01*
X10485446Y23280421D01*
X10610722Y23336197D01*
X10610724Y23336198D01*
X10616752Y23338882D01*
X10632504Y23350326D01*
X10759382Y23442509D01*
X10771253Y23451134D01*
X10775668Y23456037D01*
X10780580Y23460460D01*
X10781705Y23459211D01*
X10835014Y23492051D01*
X10868200Y23496500D01*
X11876776Y23496500D01*
X11944897Y23476498D01*
X11991390Y23422842D01*
X12001494Y23352568D01*
X11985231Y23306364D01*
X11965855Y23273601D01*
X11919438Y23113831D01*
X11916500Y23076502D01*
X11916500Y22643498D01*
X11919438Y22606169D01*
X11921233Y22599992D01*
X11955303Y22482721D01*
X11965855Y22446399D01*
X11969892Y22439573D01*
X12046509Y22310020D01*
X12046511Y22310017D01*
X12050547Y22303193D01*
X12168193Y22185547D01*
X12175017Y22181511D01*
X12175020Y22181509D01*
X12282589Y22117893D01*
X12311399Y22100855D01*
X12319010Y22098644D01*
X12319012Y22098643D01*
X12371231Y22083472D01*
X12471169Y22054438D01*
X12477574Y22053934D01*
X12477579Y22053933D01*
X12506042Y22051693D01*
X12506050Y22051693D01*
X12508498Y22051500D01*
X12575500Y22051500D01*
X12643621Y22031498D01*
X12690114Y21977842D01*
X12701500Y21925500D01*
X12701500Y21079500D01*
X12681498Y21011379D01*
X12627842Y20964886D01*
X12575500Y20953500D01*
X11508767Y20953500D01*
X11497584Y20954027D01*
X11490091Y20955702D01*
X11482165Y20955453D01*
X11482164Y20955453D01*
X11422014Y20953562D01*
X11418055Y20953500D01*
X11390144Y20953500D01*
X11386210Y20953003D01*
X11386209Y20953003D01*
X11386144Y20952995D01*
X11374307Y20952062D01*
X11342490Y20951062D01*
X11338029Y20950922D01*
X11330110Y20950673D01*
X11312454Y20945544D01*
X11310658Y20945022D01*
X11291306Y20941014D01*
X11284235Y20940120D01*
X11271203Y20938474D01*
X11263834Y20935557D01*
X11263832Y20935556D01*
X11230097Y20922200D01*
X11218869Y20918355D01*
X11176407Y20906018D01*
X11169584Y20901983D01*
X11169582Y20901982D01*
X11158972Y20895707D01*
X11141224Y20887012D01*
X11122383Y20879552D01*
X11115967Y20874890D01*
X11115966Y20874890D01*
X11086613Y20853564D01*
X11076692Y20847048D01*
X11038638Y20824542D01*
X11033031Y20818936D01*
X11024315Y20810220D01*
X11009282Y20797380D01*
X10992893Y20785472D01*
X10987841Y20779365D01*
X10964712Y20751407D01*
X10956722Y20742626D01*
X10643742Y20429647D01*
X10635463Y20422113D01*
X10628982Y20418000D01*
X10582951Y20368982D01*
X10582356Y20368348D01*
X10579601Y20365506D01*
X10559865Y20345770D01*
X10557385Y20342573D01*
X10549682Y20333553D01*
X10519414Y20301321D01*
X10515595Y20294375D01*
X10515593Y20294372D01*
X10509652Y20283566D01*
X10498801Y20267047D01*
X10486386Y20251041D01*
X10483241Y20243772D01*
X10483238Y20243768D01*
X10468826Y20210463D01*
X10463609Y20199813D01*
X10442305Y20161060D01*
X10440334Y20153385D01*
X10440334Y20153384D01*
X10437267Y20141438D01*
X10430863Y20122734D01*
X10422819Y20104145D01*
X10421580Y20096322D01*
X10421577Y20096312D01*
X10415901Y20060476D01*
X10413495Y20048856D01*
X10402500Y20006030D01*
X10402500Y19985776D01*
X10400948Y19966062D01*
X10399608Y19957603D01*
X10369194Y19893451D01*
X10356148Y19881141D01*
X10352287Y19878752D01*
X10231448Y19757702D01*
X10227608Y19751472D01*
X10227607Y19751471D01*
X10150587Y19626521D01*
X10141698Y19612101D01*
X10087851Y19449757D01*
X10077500Y19348732D01*
X10077500Y18751268D01*
X10088113Y18648981D01*
X10142244Y18486732D01*
X10232248Y18341287D01*
X10353298Y18220448D01*
X10359529Y18216607D01*
X10365274Y18212070D01*
X10363890Y18210318D01*
X10404106Y18165637D01*
X10416500Y18111143D01*
X10416500Y17818575D01*
X10396498Y17750454D01*
X10342842Y17703961D01*
X10304108Y17693312D01*
X10303037Y17693196D01*
X10289684Y17691745D01*
X10153295Y17640615D01*
X10036739Y17553261D01*
X9949385Y17436705D01*
X9898255Y17300316D01*
X9891500Y17238134D01*
X9891500Y16241866D01*
X9898255Y16179684D01*
X9949385Y16043295D01*
X10036739Y15926739D01*
X10153295Y15839385D01*
X10289684Y15788255D01*
X10351866Y15781500D01*
X11748134Y15781500D01*
X11810316Y15788255D01*
X11946705Y15839385D01*
X12063261Y15926739D01*
X12150615Y16043295D01*
X12201745Y16179684D01*
X12208500Y16241866D01*
X12208500Y17238134D01*
X12201745Y17300316D01*
X12150615Y17436705D01*
X12063261Y17553261D01*
X11946705Y17640615D01*
X11810316Y17691745D01*
X11796963Y17693196D01*
X11795892Y17693312D01*
X11730330Y17720554D01*
X11689904Y17778917D01*
X11683500Y17818575D01*
X11683500Y18132845D01*
X11703502Y18200966D01*
X11720336Y18221872D01*
X11722290Y18223829D01*
X11784576Y18257902D01*
X11855396Y18252891D01*
X11891853Y18229501D01*
X11892683Y18230552D01*
X11909840Y18217002D01*
X12042880Y18134996D01*
X12056061Y18128849D01*
X12204814Y18079509D01*
X12218190Y18076642D01*
X12309097Y18067328D01*
X12314126Y18067071D01*
X12329124Y18071475D01*
X12330329Y18072865D01*
X12332000Y18080548D01*
X12332000Y18085115D01*
X12840000Y18085115D01*
X12844475Y18069876D01*
X12845865Y18068671D01*
X12853548Y18067000D01*
X12856438Y18067000D01*
X12862953Y18067337D01*
X12955057Y18076894D01*
X12968456Y18079788D01*
X13117107Y18129381D01*
X13130286Y18135555D01*
X13263173Y18217788D01*
X13274574Y18226824D01*
X13384986Y18337429D01*
X13393998Y18348840D01*
X13476004Y18481880D01*
X13482151Y18495061D01*
X13531491Y18643814D01*
X13534358Y18657190D01*
X13543672Y18748097D01*
X13544000Y18754513D01*
X13544000Y18777885D01*
X13539525Y18793124D01*
X13538135Y18794329D01*
X13530452Y18796000D01*
X12858115Y18796000D01*
X12842876Y18791525D01*
X12841671Y18790135D01*
X12840000Y18782452D01*
X12840000Y18085115D01*
X12332000Y18085115D01*
X12332000Y19178000D01*
X12352002Y19246121D01*
X12405658Y19292614D01*
X12458000Y19304000D01*
X13525885Y19304000D01*
X13541124Y19308475D01*
X13542329Y19309865D01*
X13544000Y19317548D01*
X13544000Y19345438D01*
X13543663Y19351953D01*
X13534106Y19444057D01*
X13531212Y19457456D01*
X13510138Y19520624D01*
X13507554Y19591574D01*
X13543738Y19652658D01*
X13607202Y19684482D01*
X13629662Y19686500D01*
X14925406Y19686500D01*
X14993527Y19666498D01*
X15014501Y19649595D01*
X16305636Y18358460D01*
X16339662Y18296148D01*
X16339060Y18239951D01*
X16298229Y18069876D01*
X16285465Y18016711D01*
X16266835Y17780000D01*
X16285465Y17543289D01*
X16286619Y17538482D01*
X16286620Y17538476D01*
X16313072Y17428297D01*
X16340895Y17312406D01*
X16342788Y17307835D01*
X16342789Y17307833D01*
X16373075Y17234717D01*
X16431760Y17093037D01*
X16434346Y17088817D01*
X16553241Y16894798D01*
X16553245Y16894792D01*
X16555824Y16890584D01*
X16710031Y16710031D01*
X16890584Y16555824D01*
X16894792Y16553245D01*
X16894798Y16553241D01*
X16963111Y16511379D01*
X17093037Y16431760D01*
X17097607Y16429867D01*
X17097611Y16429865D01*
X17307833Y16342789D01*
X17312406Y16340895D01*
X17392609Y16321640D01*
X17538476Y16286620D01*
X17538482Y16286619D01*
X17543289Y16285465D01*
X17628906Y16278727D01*
X17695246Y16253442D01*
X17737386Y16196304D01*
X17741945Y16125454D01*
X17708114Y16064020D01*
X17157742Y15513648D01*
X17149462Y15506113D01*
X17142982Y15502000D01*
X17096390Y15452384D01*
X17096357Y15452349D01*
X17093602Y15449507D01*
X17073865Y15429770D01*
X17071385Y15426573D01*
X17063682Y15417553D01*
X17033414Y15385321D01*
X17029595Y15378375D01*
X17029593Y15378372D01*
X17023652Y15367566D01*
X17012801Y15351047D01*
X17000386Y15335041D01*
X16997241Y15327772D01*
X16997238Y15327768D01*
X16982826Y15294463D01*
X16977609Y15283813D01*
X16956305Y15245060D01*
X16954334Y15237385D01*
X16954334Y15237384D01*
X16951267Y15225438D01*
X16944863Y15206734D01*
X16936819Y15188145D01*
X16935580Y15180322D01*
X16935577Y15180312D01*
X16929901Y15144476D01*
X16927498Y15132868D01*
X16926889Y15130495D01*
X16890581Y15069484D01*
X16880410Y15060991D01*
X16836739Y15028261D01*
X16749385Y14911705D01*
X16698255Y14775316D01*
X16691500Y14713134D01*
X16691500Y13116866D01*
X16698255Y13054684D01*
X16749385Y12918295D01*
X16836739Y12801739D01*
X16953295Y12714385D01*
X17089684Y12663255D01*
X17151866Y12656500D01*
X17948134Y12656500D01*
X18010316Y12663255D01*
X18146705Y12714385D01*
X18263261Y12801739D01*
X18350615Y12918295D01*
X18401745Y13054684D01*
X18408500Y13116866D01*
X18408500Y14713134D01*
X18401745Y14775316D01*
X18378272Y14837930D01*
X18373089Y14908736D01*
X18407159Y14971255D01*
X18640501Y15204596D01*
X18702813Y15238621D01*
X18729596Y15241500D01*
X19747587Y15241500D01*
X19815708Y15221498D01*
X19862201Y15167842D01*
X19872305Y15097568D01*
X19842811Y15032988D01*
X19842268Y15032405D01*
X19836739Y15028261D01*
X19749385Y14911705D01*
X19698255Y14775316D01*
X19691500Y14713134D01*
X19691500Y14479585D01*
X19676336Y14419656D01*
X19615802Y14307701D01*
X19557318Y14118768D01*
X19536645Y13922075D01*
X19554570Y13725112D01*
X19610410Y13535381D01*
X19613263Y13529923D01*
X19613265Y13529919D01*
X19677162Y13407697D01*
X19691500Y13349321D01*
X19691500Y13116866D01*
X19698255Y13054684D01*
X19749385Y12918295D01*
X19836739Y12801739D01*
X19953295Y12714385D01*
X20089684Y12663255D01*
X20151866Y12656500D01*
X20948134Y12656500D01*
X21010316Y12663255D01*
X21146705Y12714385D01*
X21263261Y12801739D01*
X21303976Y12856065D01*
X21360835Y12898580D01*
X21404802Y12906500D01*
X22955507Y12906500D01*
X23023628Y12886498D01*
X23070121Y12832842D01*
X23077543Y12811237D01*
X23078255Y12804684D01*
X23081027Y12797289D01*
X23081028Y12797286D01*
X23110087Y12719771D01*
X23129385Y12668295D01*
X23216739Y12551739D01*
X23333295Y12464385D01*
X23469684Y12413255D01*
X23531866Y12406500D01*
X24728134Y12406500D01*
X24790316Y12413255D01*
X24926705Y12464385D01*
X25043261Y12551739D01*
X25130615Y12668295D01*
X25149913Y12719771D01*
X25178972Y12797286D01*
X25178973Y12797289D01*
X25181745Y12804684D01*
X25182372Y12810453D01*
X25217126Y12871291D01*
X25280081Y12904113D01*
X25304493Y12906500D01*
X26485874Y12906500D01*
X26553995Y12886498D01*
X26600488Y12832842D01*
X26603856Y12824730D01*
X26625373Y12767335D01*
X26634385Y12743295D01*
X26721739Y12626739D01*
X26838295Y12539385D01*
X26974684Y12488255D01*
X27036866Y12481500D01*
X29733134Y12481500D01*
X29795316Y12488255D01*
X29931705Y12539385D01*
X30048261Y12626739D01*
X30135615Y12743295D01*
X30186745Y12879684D01*
X30193500Y12941866D01*
X30193500Y17538134D01*
X30186745Y17600316D01*
X30135615Y17736705D01*
X30048261Y17853261D01*
X29931705Y17940615D01*
X29795316Y17991745D01*
X29733134Y17998500D01*
X27036866Y17998500D01*
X26974684Y17991745D01*
X26838295Y17940615D01*
X26721739Y17853261D01*
X26634385Y17736705D01*
X26583255Y17600316D01*
X26576500Y17538134D01*
X26576500Y15049500D01*
X26556498Y14981379D01*
X26502842Y14934886D01*
X26450500Y14923500D01*
X24246850Y14923500D01*
X24233242Y14924237D01*
X24232662Y14924300D01*
X24195612Y14928325D01*
X24145928Y14923978D01*
X24134968Y14923500D01*
X21404802Y14923500D01*
X21336681Y14943502D01*
X21303976Y14973935D01*
X21268642Y15021081D01*
X21263261Y15028261D01*
X21261642Y15029474D01*
X21229292Y15088717D01*
X21234357Y15159532D01*
X21276904Y15216368D01*
X21343424Y15241179D01*
X21352413Y15241500D01*
X21511233Y15241500D01*
X21522416Y15240973D01*
X21529909Y15239298D01*
X21537835Y15239547D01*
X21537836Y15239547D01*
X21597986Y15241438D01*
X21601945Y15241500D01*
X21629856Y15241500D01*
X21633791Y15241997D01*
X21633856Y15242005D01*
X21645693Y15242938D01*
X21677951Y15243952D01*
X21681970Y15244078D01*
X21689889Y15244327D01*
X21709343Y15249979D01*
X21728700Y15253987D01*
X21740930Y15255532D01*
X21740931Y15255532D01*
X21748797Y15256526D01*
X21756168Y15259445D01*
X21756170Y15259445D01*
X21789912Y15272804D01*
X21801142Y15276649D01*
X21835983Y15286771D01*
X21835984Y15286771D01*
X21843593Y15288982D01*
X21850412Y15293015D01*
X21850417Y15293017D01*
X21861028Y15299293D01*
X21878776Y15307988D01*
X21897617Y15315448D01*
X21933387Y15341436D01*
X21943307Y15347952D01*
X21974535Y15366420D01*
X21974538Y15366422D01*
X21981362Y15370458D01*
X21995683Y15384779D01*
X22010717Y15397620D01*
X22020694Y15404869D01*
X22027107Y15409528D01*
X22055298Y15443605D01*
X22063288Y15452384D01*
X22916540Y16305636D01*
X22978852Y16339662D01*
X23035049Y16339060D01*
X23253476Y16286620D01*
X23253482Y16286619D01*
X23258289Y16285465D01*
X23495000Y16266835D01*
X23731711Y16285465D01*
X23736518Y16286619D01*
X23736524Y16286620D01*
X23882391Y16321640D01*
X23962594Y16340895D01*
X23967167Y16342789D01*
X24177389Y16429865D01*
X24177393Y16429867D01*
X24181963Y16431760D01*
X24311889Y16511379D01*
X24380202Y16553241D01*
X24380208Y16553245D01*
X24384416Y16555824D01*
X24564969Y16710031D01*
X24719176Y16890584D01*
X24721755Y16894792D01*
X24721759Y16894798D01*
X24840654Y17088817D01*
X24843240Y17093037D01*
X24901926Y17234717D01*
X24932211Y17307833D01*
X24932212Y17307835D01*
X24934105Y17312406D01*
X24961928Y17428297D01*
X24988380Y17538476D01*
X24988381Y17538482D01*
X24989535Y17543289D01*
X25008165Y17780000D01*
X24989535Y18016711D01*
X24976772Y18069876D01*
X24943054Y18210318D01*
X24934105Y18247594D01*
X24931911Y18252891D01*
X24845135Y18462389D01*
X24845133Y18462393D01*
X24843240Y18466963D01*
X24834099Y18481880D01*
X24721759Y18665202D01*
X24721755Y18665208D01*
X24719176Y18669416D01*
X24564969Y18849969D01*
X24384416Y19004176D01*
X24380208Y19006755D01*
X24380202Y19006759D01*
X24186183Y19125654D01*
X24181963Y19128240D01*
X24177393Y19130133D01*
X24177389Y19130135D01*
X23967167Y19217211D01*
X23967165Y19217212D01*
X23962594Y19219105D01*
X23882391Y19238360D01*
X23736524Y19273380D01*
X23736518Y19273381D01*
X23731711Y19274535D01*
X23495000Y19293165D01*
X23258289Y19274535D01*
X23253482Y19273381D01*
X23253476Y19273380D01*
X23107609Y19238360D01*
X23027406Y19219105D01*
X23022835Y19217212D01*
X23022833Y19217211D01*
X22812611Y19130135D01*
X22812607Y19130133D01*
X22808037Y19128240D01*
X22803817Y19125654D01*
X22609798Y19006759D01*
X22609792Y19006755D01*
X22605584Y19004176D01*
X22425031Y18849969D01*
X22270824Y18669416D01*
X22268245Y18665208D01*
X22268241Y18665202D01*
X22155901Y18481880D01*
X22146760Y18466963D01*
X22144867Y18462393D01*
X22144865Y18462389D01*
X22058089Y18252891D01*
X22055895Y18247594D01*
X22046946Y18210318D01*
X22013229Y18069876D01*
X22000465Y18016711D01*
X21981835Y17780000D01*
X22000465Y17543289D01*
X22001619Y17538482D01*
X22001620Y17538476D01*
X22054060Y17320050D01*
X22050513Y17249142D01*
X22020636Y17201540D01*
X21364499Y16545404D01*
X21302187Y16511379D01*
X21275404Y16508500D01*
X18951161Y16508500D01*
X18883040Y16528502D01*
X18836547Y16582158D01*
X18826443Y16652432D01*
X18855350Y16716330D01*
X19000961Y16886818D01*
X19000969Y16886830D01*
X19004176Y16890584D01*
X19006755Y16894792D01*
X19006759Y16894798D01*
X19125654Y17088817D01*
X19128240Y17093037D01*
X19186926Y17234717D01*
X19217211Y17307833D01*
X19217212Y17307835D01*
X19219105Y17312406D01*
X19246928Y17428297D01*
X19273380Y17538476D01*
X19273381Y17538482D01*
X19274535Y17543289D01*
X19293165Y17780000D01*
X19274535Y18016711D01*
X19261772Y18069876D01*
X19228054Y18210318D01*
X19219105Y18247594D01*
X19216911Y18252891D01*
X19130135Y18462389D01*
X19130133Y18462393D01*
X19128240Y18466963D01*
X19119099Y18481880D01*
X19006759Y18665202D01*
X19006755Y18665208D01*
X19004176Y18669416D01*
X18849969Y18849969D01*
X18669416Y19004176D01*
X18665208Y19006755D01*
X18665202Y19006759D01*
X18471183Y19125654D01*
X18466963Y19128240D01*
X18462393Y19130133D01*
X18462389Y19130135D01*
X18252167Y19217211D01*
X18252165Y19217212D01*
X18247594Y19219105D01*
X18167391Y19238360D01*
X18021524Y19273380D01*
X18021518Y19273381D01*
X18016711Y19274535D01*
X17780000Y19293165D01*
X17543289Y19274535D01*
X17538482Y19273381D01*
X17538476Y19273380D01*
X17372896Y19233627D01*
X17320049Y19220940D01*
X17249142Y19224487D01*
X17201541Y19254364D01*
X16349500Y20106405D01*
X16315474Y20168717D01*
X16320539Y20239532D01*
X16363086Y20296368D01*
X16429606Y20321179D01*
X16438595Y20321500D01*
X16450224Y20321500D01*
X16469934Y20319949D01*
X16489943Y20316780D01*
X16497835Y20317526D01*
X16516580Y20319298D01*
X16533962Y20320941D01*
X16545819Y20321500D01*
X26441233Y20321500D01*
X26452416Y20320973D01*
X26459909Y20319298D01*
X26467835Y20319547D01*
X26467836Y20319547D01*
X26527986Y20321438D01*
X26531945Y20321500D01*
X26559856Y20321500D01*
X26563791Y20321997D01*
X26563856Y20322005D01*
X26575693Y20322938D01*
X26607951Y20323952D01*
X26611970Y20324078D01*
X26619889Y20324327D01*
X26639343Y20329979D01*
X26658700Y20333987D01*
X26670930Y20335532D01*
X26670931Y20335532D01*
X26678797Y20336526D01*
X26686168Y20339445D01*
X26686170Y20339445D01*
X26719912Y20352804D01*
X26731142Y20356649D01*
X26765983Y20366771D01*
X26765984Y20366771D01*
X26773593Y20368982D01*
X26780412Y20373015D01*
X26780417Y20373017D01*
X26791028Y20379293D01*
X26808776Y20387988D01*
X26827617Y20395448D01*
X26863387Y20421436D01*
X26873307Y20427952D01*
X26904535Y20446420D01*
X26904538Y20446422D01*
X26911362Y20450458D01*
X26925683Y20464779D01*
X26940717Y20477620D01*
X26950694Y20484869D01*
X26957107Y20489528D01*
X26985298Y20523605D01*
X26993288Y20532384D01*
X28475500Y22014595D01*
X28537812Y22048621D01*
X28564595Y22051500D01*
X29316502Y22051500D01*
X29318950Y22051693D01*
X29318958Y22051693D01*
X29347421Y22053933D01*
X29347426Y22053934D01*
X29353831Y22054438D01*
X29453769Y22083472D01*
X29505988Y22098643D01*
X29505990Y22098644D01*
X29513601Y22100855D01*
X29542411Y22117893D01*
X29649980Y22181509D01*
X29649983Y22181511D01*
X29656807Y22185547D01*
X29774453Y22303193D01*
X29778489Y22310017D01*
X29778491Y22310020D01*
X29855108Y22439573D01*
X29859145Y22446399D01*
X29869698Y22482721D01*
X29903767Y22599992D01*
X29905562Y22606169D01*
X29908500Y22643498D01*
X29908500Y23076502D01*
X29905562Y23113831D01*
X29859145Y23273601D01*
X29839769Y23306363D01*
X29822311Y23375178D01*
X29844828Y23442509D01*
X29900173Y23486978D01*
X29948224Y23496500D01*
X30562775Y23496500D01*
X30630896Y23476498D01*
X30670551Y23435771D01*
X30683361Y23414619D01*
X30804619Y23293361D01*
X30951301Y23204528D01*
X30958548Y23202257D01*
X30958550Y23202256D01*
X31020325Y23182897D01*
X31114938Y23153247D01*
X31188365Y23146500D01*
X31191263Y23146500D01*
X31445665Y23146501D01*
X31701634Y23146501D01*
X31704492Y23146764D01*
X31704501Y23146764D01*
X31740004Y23150026D01*
X31775062Y23153247D01*
X31869675Y23182897D01*
X31931450Y23202256D01*
X31931452Y23202257D01*
X31938699Y23204528D01*
X32085381Y23293361D01*
X32180905Y23388885D01*
X32243217Y23422911D01*
X32314032Y23417846D01*
X32359095Y23388885D01*
X32454619Y23293361D01*
X32601301Y23204528D01*
X32608548Y23202257D01*
X32608550Y23202256D01*
X32670325Y23182897D01*
X32764938Y23153247D01*
X32838365Y23146500D01*
X32841263Y23146500D01*
X33095665Y23146501D01*
X33351634Y23146501D01*
X33354492Y23146764D01*
X33354501Y23146764D01*
X33390004Y23150026D01*
X33425062Y23153247D01*
X33519675Y23182897D01*
X33581450Y23202256D01*
X33581452Y23202257D01*
X33588699Y23204528D01*
X33735381Y23293361D01*
X33856639Y23414619D01*
X33869449Y23435771D01*
X33921846Y23483678D01*
X33977225Y23496500D01*
X35611233Y23496500D01*
X35622416Y23495973D01*
X35629909Y23494298D01*
X35637835Y23494547D01*
X35637836Y23494547D01*
X35697986Y23496438D01*
X35701945Y23496500D01*
X35729856Y23496500D01*
X35733791Y23496997D01*
X35733856Y23497005D01*
X35745693Y23497938D01*
X35777951Y23498952D01*
X35781970Y23499078D01*
X35789889Y23499327D01*
X35809343Y23504979D01*
X35828700Y23508987D01*
X35840930Y23510532D01*
X35840931Y23510532D01*
X35848797Y23511526D01*
X35856168Y23514445D01*
X35856170Y23514445D01*
X35889912Y23527804D01*
X35901142Y23531649D01*
X35935983Y23541771D01*
X35935984Y23541771D01*
X35943593Y23543982D01*
X35950412Y23548015D01*
X35950417Y23548017D01*
X35961028Y23554293D01*
X35978781Y23562990D01*
X35990559Y23567654D01*
X36036937Y23576500D01*
X36793134Y23576500D01*
X36855316Y23583255D01*
X36991705Y23634385D01*
X37108261Y23721739D01*
X37195615Y23838295D01*
X37246745Y23974684D01*
X37253500Y24036866D01*
X37253500Y25233134D01*
X37246745Y25295316D01*
X37195615Y25431705D01*
X37108261Y25548261D01*
X36991705Y25635615D01*
X36855316Y25686745D01*
X36793134Y25693500D01*
X35596866Y25693500D01*
X35534684Y25686745D01*
X35398295Y25635615D01*
X35281739Y25548261D01*
X35194385Y25431705D01*
X35143255Y25295316D01*
X35136500Y25233134D01*
X35136500Y24889500D01*
X35116498Y24821379D01*
X35062842Y24774886D01*
X35010500Y24763500D01*
X33977225Y24763500D01*
X33909104Y24783502D01*
X33869449Y24824229D01*
X33860576Y24838880D01*
X33856639Y24845381D01*
X33765405Y24936615D01*
X33731379Y24998927D01*
X33728500Y25025710D01*
X33728500Y25881237D01*
X33729027Y25892421D01*
X33730701Y25899909D01*
X33728562Y25967968D01*
X33728500Y25971925D01*
X33728500Y25999856D01*
X33727994Y26003862D01*
X33727061Y26015708D01*
X33726895Y26021012D01*
X33725673Y26059890D01*
X33720022Y26079342D01*
X33716014Y26098694D01*
X33714468Y26110932D01*
X33714467Y26110934D01*
X33713474Y26118797D01*
X33697194Y26159914D01*
X33693359Y26171115D01*
X33681018Y26213594D01*
X33676985Y26220413D01*
X33676983Y26220418D01*
X33670707Y26231029D01*
X33662010Y26248779D01*
X33654552Y26267617D01*
X33628571Y26303377D01*
X33622053Y26313299D01*
X33603578Y26344540D01*
X33603574Y26344545D01*
X33599542Y26351363D01*
X33585218Y26365687D01*
X33572376Y26380722D01*
X33560472Y26397107D01*
X33526406Y26425289D01*
X33517627Y26433278D01*
X31150405Y28800500D01*
X31116379Y28862812D01*
X31113500Y28889595D01*
X31113500Y30475534D01*
X31133502Y30543655D01*
X31168878Y30577864D01*
X31167994Y30579104D01*
X31172207Y30582109D01*
X31349860Y30708827D01*
X31394993Y30753802D01*
X31452693Y30811301D01*
X31508096Y30866511D01*
X31526326Y30891880D01*
X31638453Y31047923D01*
X31639776Y31046972D01*
X31686645Y31090143D01*
X31756580Y31102375D01*
X31822026Y31074856D01*
X31849875Y31043006D01*
X31909987Y30944912D01*
X32056250Y30776062D01*
X32228126Y30633368D01*
X32314070Y30583147D01*
X32362794Y30531509D01*
X32376500Y30474359D01*
X32376500Y28663767D01*
X32375973Y28652584D01*
X32374298Y28645091D01*
X32374547Y28637165D01*
X32374547Y28637164D01*
X32376438Y28577014D01*
X32376500Y28573055D01*
X32376500Y28545144D01*
X32376997Y28541210D01*
X32376997Y28541209D01*
X32377005Y28541144D01*
X32377938Y28529307D01*
X32379327Y28485111D01*
X32384443Y28467503D01*
X32384978Y28465661D01*
X32388987Y28446300D01*
X32391526Y28426203D01*
X32394445Y28418832D01*
X32394445Y28418830D01*
X32407804Y28385088D01*
X32411649Y28373858D01*
X32421771Y28339017D01*
X32423982Y28331407D01*
X32428015Y28324588D01*
X32428017Y28324583D01*
X32434293Y28313972D01*
X32442988Y28296224D01*
X32450448Y28277383D01*
X32455110Y28270967D01*
X32455110Y28270966D01*
X32476436Y28241613D01*
X32482952Y28231693D01*
X32505458Y28193638D01*
X32519779Y28179317D01*
X32532619Y28164284D01*
X32544528Y28147893D01*
X32578605Y28119702D01*
X32587384Y28111712D01*
X33656343Y27042753D01*
X33663887Y27034463D01*
X33668000Y27027982D01*
X33673777Y27022557D01*
X33717667Y26981342D01*
X33720509Y26978587D01*
X33740231Y26958865D01*
X33743355Y26956442D01*
X33743359Y26956438D01*
X33743424Y26956388D01*
X33752445Y26948683D01*
X33784679Y26918414D01*
X33791627Y26914595D01*
X33791629Y26914593D01*
X33802432Y26908654D01*
X33818959Y26897798D01*
X33828698Y26890243D01*
X33828700Y26890242D01*
X33834960Y26885386D01*
X33875540Y26867826D01*
X33886188Y26862609D01*
X33924940Y26841305D01*
X33932616Y26839334D01*
X33932619Y26839333D01*
X33944562Y26836267D01*
X33963267Y26829863D01*
X33981855Y26821819D01*
X33989678Y26820580D01*
X33989688Y26820577D01*
X34025524Y26814901D01*
X34037144Y26812495D01*
X34072289Y26803472D01*
X34079970Y26801500D01*
X34100224Y26801500D01*
X34119934Y26799949D01*
X34139943Y26796780D01*
X34147835Y26797526D01*
X34183961Y26800941D01*
X34195819Y26801500D01*
X35045874Y26801500D01*
X35113995Y26781498D01*
X35160488Y26727842D01*
X35163856Y26719730D01*
X35194385Y26638295D01*
X35281739Y26521739D01*
X35398295Y26434385D01*
X35534684Y26383255D01*
X35596866Y26376500D01*
X36793134Y26376500D01*
X36855316Y26383255D01*
X36991705Y26434385D01*
X37108261Y26521739D01*
X37195615Y26638295D01*
X37246745Y26774684D01*
X37253500Y26836866D01*
X37253500Y28033134D01*
X37246745Y28095316D01*
X37195615Y28231705D01*
X37108261Y28348261D01*
X36991705Y28435615D01*
X36855316Y28486745D01*
X36793134Y28493500D01*
X35596866Y28493500D01*
X35534684Y28486745D01*
X35398295Y28435615D01*
X35281739Y28348261D01*
X35194385Y28231705D01*
X35191233Y28223297D01*
X35163856Y28150270D01*
X35121214Y28093506D01*
X35054652Y28068806D01*
X35045874Y28068500D01*
X34474595Y28068500D01*
X34406474Y28088502D01*
X34385499Y28105405D01*
X33680404Y28810501D01*
X33646379Y28872813D01*
X33643500Y28899596D01*
X33643500Y30469573D01*
X33663502Y30537694D01*
X33704618Y30577450D01*
X33707994Y30579104D01*
X33889860Y30708827D01*
X33998091Y30816681D01*
X34060462Y30850596D01*
X34131268Y30845408D01*
X34188030Y30802762D01*
X34205012Y30771659D01*
X34223628Y30722001D01*
X34249385Y30653295D01*
X34336739Y30536739D01*
X34453295Y30449385D01*
X34589684Y30398255D01*
X34651866Y30391500D01*
X36448134Y30391500D01*
X36510316Y30398255D01*
X36646705Y30449385D01*
X36763261Y30536739D01*
X36850615Y30653295D01*
X36901745Y30789684D01*
X36908500Y30851866D01*
X36908500Y32648134D01*
X36901745Y32710316D01*
X36850615Y32846705D01*
X36763261Y32963261D01*
X36646705Y33050615D01*
X36510316Y33101745D01*
X36448134Y33108500D01*
X35139595Y33108500D01*
X35071474Y33128502D01*
X35050499Y33145405D01*
X34148647Y34047258D01*
X34141113Y34055537D01*
X34137000Y34062018D01*
X34087348Y34108644D01*
X34084507Y34111398D01*
X34064770Y34131135D01*
X34061573Y34133615D01*
X34052551Y34141320D01*
X34039122Y34153931D01*
X34020321Y34171586D01*
X34013375Y34175405D01*
X34013372Y34175407D01*
X34002566Y34181348D01*
X33986047Y34192199D01*
X33985583Y34192559D01*
X33970041Y34204614D01*
X33962772Y34207759D01*
X33962768Y34207762D01*
X33929463Y34222174D01*
X33918813Y34227391D01*
X33880060Y34248695D01*
X33876680Y34249563D01*
X33822264Y34292021D01*
X33798787Y34359024D01*
X33815261Y34428082D01*
X33866456Y34477272D01*
X33924620Y34491500D01*
X39365500Y34491500D01*
X39433621Y34471498D01*
X39480114Y34417842D01*
X39491500Y34365500D01*
X39491500Y634500D01*
X39471498Y566379D01*
X39417842Y519886D01*
X39365500Y508500D01*
X2216537Y508500D01*
X2148416Y528502D01*
X2101923Y582158D01*
X2097764Y592440D01*
X2056173Y709889D01*
X2000934Y865881D01*
X1864907Y1129428D01*
X1851226Y1148895D01*
X1739877Y1307328D01*
X1739876Y1307330D01*
X10181160Y1307330D01*
X10186887Y1299680D01*
X10358042Y1194795D01*
X10366837Y1190313D01*
X10576988Y1103266D01*
X10586373Y1100217D01*
X10807554Y1047115D01*
X10817301Y1045572D01*
X11044070Y1027725D01*
X11053930Y1027725D01*
X11280699Y1045572D01*
X11290446Y1047115D01*
X11511627Y1100217D01*
X11521012Y1103266D01*
X11731163Y1190313D01*
X11739958Y1194795D01*
X11907445Y1297432D01*
X11916907Y1307890D01*
X11913124Y1316666D01*
X11061812Y2167978D01*
X11047868Y2175592D01*
X11046035Y2175461D01*
X11039420Y2171210D01*
X10187920Y1319710D01*
X10181160Y1307330D01*
X1739876Y1307330D01*
X1694372Y1372075D01*
X1602570Y1470866D01*
X1495404Y1586190D01*
X1495401Y1586192D01*
X1492483Y1589333D01*
X1489168Y1592047D01*
X1489164Y1592050D01*
X1266295Y1774466D01*
X1262977Y1777182D01*
X1010101Y1932144D01*
X814933Y2017817D01*
X742465Y2049628D01*
X738533Y2051354D01*
X711776Y2058976D01*
X599981Y2090822D01*
X539946Y2128721D01*
X509932Y2193061D01*
X508500Y2212001D01*
X508500Y29361957D01*
X3096139Y29361957D01*
X3098335Y29347793D01*
X3111522Y29344000D01*
X4282885Y29344000D01*
X4298124Y29348475D01*
X4299329Y29349865D01*
X4301000Y29357548D01*
X4301000Y29362115D01*
X4809000Y29362115D01*
X4813475Y29346876D01*
X4814865Y29345671D01*
X4822548Y29344000D01*
X5996192Y29344000D01*
X6009723Y29347973D01*
X6011248Y29358580D01*
X5986523Y29476421D01*
X5983463Y29486617D01*
X5902737Y29691029D01*
X5898006Y29700561D01*
X5783984Y29888462D01*
X5777720Y29897052D01*
X5633673Y30063052D01*
X5626042Y30070472D01*
X5456089Y30209826D01*
X5447322Y30215850D01*
X5256318Y30324576D01*
X5246654Y30329041D01*
X5040059Y30404031D01*
X5029792Y30406802D01*
X4826826Y30443504D01*
X4813586Y30442085D01*
X4809000Y30427450D01*
X4809000Y29362115D01*
X4301000Y29362115D01*
X4301000Y30423849D01*
X4296690Y30438527D01*
X4284807Y30440590D01*
X4205675Y30433876D01*
X4195203Y30432086D01*
X3982465Y30376870D01*
X3972425Y30373335D01*
X3772030Y30283063D01*
X3762744Y30277894D01*
X3580425Y30155150D01*
X3572130Y30148481D01*
X3413100Y29996772D01*
X3406059Y29988814D01*
X3274859Y29812475D01*
X3269255Y29803438D01*
X3169643Y29607516D01*
X3165643Y29597665D01*
X3100466Y29387760D01*
X3098183Y29377376D01*
X3096139Y29361957D01*
X508500Y29361957D01*
X508500Y31482034D01*
X12003257Y31482034D01*
X12033565Y31347554D01*
X12036645Y31337725D01*
X12116770Y31140397D01*
X12121413Y31131206D01*
X12232694Y30949612D01*
X12238777Y30941301D01*
X12378213Y30780333D01*
X12385580Y30773117D01*
X12549434Y30637084D01*
X12557881Y30631169D01*
X12741756Y30523721D01*
X12751042Y30519271D01*
X12950001Y30443297D01*
X12959899Y30440421D01*
X13063250Y30419394D01*
X13077299Y30420590D01*
X13081000Y30430935D01*
X13081000Y31477885D01*
X13076525Y31493124D01*
X13075135Y31494329D01*
X13067452Y31496000D01*
X12018225Y31496000D01*
X12004694Y31492027D01*
X12003257Y31482034D01*
X508500Y31482034D01*
X508500Y32015817D01*
X11999389Y32015817D01*
X12000912Y32007393D01*
X12013292Y32004000D01*
X13062885Y32004000D01*
X13078124Y32008475D01*
X13079329Y32009865D01*
X13081000Y32017548D01*
X13081000Y33066898D01*
X13077082Y33080242D01*
X13062806Y33082229D01*
X13024324Y33076340D01*
X13014288Y33073949D01*
X12811868Y33007788D01*
X12802359Y33003791D01*
X12613463Y32905458D01*
X12604738Y32899964D01*
X12434433Y32772095D01*
X12426726Y32765252D01*
X12279590Y32611283D01*
X12273104Y32603273D01*
X12153098Y32427351D01*
X12148000Y32418377D01*
X12058338Y32225217D01*
X12054775Y32215530D01*
X11999389Y32015817D01*
X508500Y32015817D01*
X508500Y34365500D01*
X528502Y34433621D01*
X582158Y34480114D01*
X634500Y34491500D01*
X26393251Y34491500D01*
X26461372Y34471498D01*
G37*
G04 #@! TD.AperFunction*
G04 #@! TA.AperFunction,Conductor*
G36*
X6293621Y23436498D02*
G01*
X6340114Y23382842D01*
X6351500Y23330500D01*
X6351500Y11019594D01*
X6331498Y10951473D01*
X6314595Y10930499D01*
X6247449Y10863353D01*
X6185137Y10829327D01*
X6114322Y10834392D01*
X6057486Y10876939D01*
X6033413Y10936798D01*
X6033249Y10941158D01*
X6006749Y11067460D01*
X5987002Y11161572D01*
X5985907Y11166791D01*
X5971490Y11203297D01*
X5903185Y11376256D01*
X5903184Y11376258D01*
X5901224Y11381221D01*
X5897580Y11387227D01*
X5784390Y11573757D01*
X5781623Y11578317D01*
X5703135Y11668767D01*
X5634023Y11748412D01*
X5634021Y11748414D01*
X5630523Y11752445D01*
X5526845Y11837456D01*
X5456373Y11895240D01*
X5456367Y11895244D01*
X5452245Y11898624D01*
X5447602Y11901267D01*
X5420265Y11916829D01*
X5370959Y11967912D01*
X5357098Y12037542D01*
X5383082Y12103613D01*
X5412232Y12130851D01*
X5529578Y12209852D01*
X5537870Y12216519D01*
X5696900Y12368228D01*
X5703941Y12376186D01*
X5835141Y12552525D01*
X5840745Y12561562D01*
X5940357Y12757484D01*
X5944357Y12767335D01*
X6009534Y12977240D01*
X6011817Y12987624D01*
X6013861Y13003043D01*
X6011665Y13017207D01*
X5998478Y13021000D01*
X4427000Y13021000D01*
X4358879Y13041002D01*
X4312386Y13094658D01*
X4301000Y13147000D01*
X4301000Y13547115D01*
X4809000Y13547115D01*
X4813475Y13531876D01*
X4814865Y13530671D01*
X4822548Y13529000D01*
X5996192Y13529000D01*
X6009723Y13532973D01*
X6011248Y13543580D01*
X5986523Y13661421D01*
X5983463Y13671617D01*
X5902737Y13876029D01*
X5898006Y13885561D01*
X5783984Y14073462D01*
X5777720Y14082052D01*
X5633673Y14248052D01*
X5626042Y14255472D01*
X5456089Y14394826D01*
X5447322Y14400850D01*
X5256318Y14509576D01*
X5246654Y14514041D01*
X5040059Y14589031D01*
X5029792Y14591802D01*
X4826826Y14628504D01*
X4813586Y14627085D01*
X4809000Y14612450D01*
X4809000Y13547115D01*
X4301000Y13547115D01*
X4301000Y14608849D01*
X4296690Y14623527D01*
X4284807Y14625590D01*
X4205675Y14618876D01*
X4195203Y14617086D01*
X3982465Y14561870D01*
X3972425Y14558335D01*
X3772030Y14468063D01*
X3762740Y14462892D01*
X3744865Y14450858D01*
X3677186Y14429408D01*
X3608655Y14447953D01*
X3561028Y14500605D01*
X3548500Y14555379D01*
X3548500Y19105075D01*
X3568502Y19173196D01*
X3585405Y19194170D01*
X4585829Y20194595D01*
X4648141Y20228620D01*
X4674924Y20231500D01*
X5330400Y20231500D01*
X5333646Y20231837D01*
X5333650Y20231837D01*
X5429308Y20241762D01*
X5429312Y20241763D01*
X5436166Y20242474D01*
X5442702Y20244655D01*
X5442704Y20244655D01*
X5596998Y20296132D01*
X5603946Y20298450D01*
X5754348Y20391522D01*
X5879305Y20516697D01*
X5888975Y20532384D01*
X5968275Y20661032D01*
X5968276Y20661034D01*
X5972115Y20667262D01*
X5998564Y20747005D01*
X6025632Y20828611D01*
X6025632Y20828613D01*
X6027797Y20835139D01*
X6038500Y20939600D01*
X6038500Y22240400D01*
X6031985Y22303193D01*
X6028238Y22339308D01*
X6028237Y22339312D01*
X6027526Y22346166D01*
X5971550Y22513946D01*
X5878478Y22664348D01*
X5753303Y22789305D01*
X5607660Y22879081D01*
X5560168Y22931852D01*
X5548744Y23001924D01*
X5577018Y23067048D01*
X5586805Y23077510D01*
X5633385Y23121946D01*
X5701135Y23186576D01*
X5838754Y23371542D01*
X5841170Y23376294D01*
X5841175Y23376302D01*
X5846922Y23387606D01*
X5895625Y23439263D01*
X5959238Y23456500D01*
X6225500Y23456500D01*
X6293621Y23436498D01*
G37*
G04 #@! TD.AperFunction*
G04 #@! TA.AperFunction,Conductor*
G36*
X26809432Y32794360D02*
G01*
X26866267Y32751813D01*
X26891078Y32685293D01*
X26875987Y32615919D01*
X26869487Y32605300D01*
X26748098Y32427351D01*
X26743000Y32418377D01*
X26653338Y32225217D01*
X26649775Y32215530D01*
X26594389Y32015817D01*
X26595912Y32007393D01*
X26608292Y32004000D01*
X28058000Y32004000D01*
X28126121Y31983998D01*
X28172614Y31930342D01*
X28184000Y31878000D01*
X28184000Y30431483D01*
X28188064Y30417641D01*
X28201478Y30415607D01*
X28208184Y30416466D01*
X28218262Y30418608D01*
X28422255Y30479809D01*
X28431842Y30483567D01*
X28623095Y30577261D01*
X28631945Y30582536D01*
X28805328Y30706208D01*
X28813200Y30712861D01*
X28964052Y30863188D01*
X28970730Y30871035D01*
X29098022Y31048181D01*
X29099279Y31047278D01*
X29146373Y31090638D01*
X29216311Y31102855D01*
X29281751Y31075322D01*
X29309579Y31043489D01*
X29369987Y30944912D01*
X29516250Y30776062D01*
X29688126Y30633368D01*
X29720456Y30614476D01*
X29784070Y30577303D01*
X29832794Y30525664D01*
X29846500Y30468515D01*
X29846500Y28653767D01*
X29845973Y28642584D01*
X29844298Y28635091D01*
X29844547Y28627165D01*
X29844547Y28627164D01*
X29846438Y28567014D01*
X29846500Y28563055D01*
X29846500Y28535144D01*
X29846997Y28531210D01*
X29846997Y28531209D01*
X29847005Y28531144D01*
X29847938Y28519307D01*
X29849327Y28475111D01*
X29854839Y28456139D01*
X29854978Y28455661D01*
X29858987Y28436300D01*
X29861526Y28416203D01*
X29864445Y28408832D01*
X29864445Y28408830D01*
X29877804Y28375088D01*
X29881649Y28363858D01*
X29893982Y28321407D01*
X29898015Y28314588D01*
X29898017Y28314583D01*
X29904293Y28303972D01*
X29912988Y28286224D01*
X29920448Y28267383D01*
X29925110Y28260967D01*
X29925110Y28260966D01*
X29946436Y28231613D01*
X29952952Y28221693D01*
X29975458Y28183638D01*
X29989779Y28169317D01*
X30002619Y28154284D01*
X30014528Y28137893D01*
X30020634Y28132842D01*
X30048605Y28109702D01*
X30057384Y28101712D01*
X32424595Y25734501D01*
X32458621Y25672189D01*
X32461500Y25645406D01*
X32461500Y25025710D01*
X32441498Y24957589D01*
X32424595Y24936615D01*
X32359095Y24871115D01*
X32296783Y24837089D01*
X32225968Y24842154D01*
X32180905Y24871115D01*
X32085381Y24966639D01*
X31938699Y25055472D01*
X31931452Y25057743D01*
X31931450Y25057744D01*
X31865164Y25078517D01*
X31775062Y25106753D01*
X31701635Y25113500D01*
X31698737Y25113500D01*
X31444335Y25113499D01*
X31188366Y25113499D01*
X31185508Y25113236D01*
X31185499Y25113236D01*
X31149996Y25109974D01*
X31114938Y25106753D01*
X31108560Y25104754D01*
X31108559Y25104754D01*
X30958550Y25057744D01*
X30958548Y25057743D01*
X30951301Y25055472D01*
X30804619Y24966639D01*
X30683361Y24845381D01*
X30679424Y24838880D01*
X30670551Y24824229D01*
X30618154Y24776322D01*
X30562775Y24763500D01*
X29948224Y24763500D01*
X29880103Y24783502D01*
X29833610Y24837158D01*
X29823506Y24907432D01*
X29839769Y24953636D01*
X29859145Y24986399D01*
X29862799Y24998974D01*
X29893530Y25104754D01*
X29905562Y25146169D01*
X29906300Y25155539D01*
X29908307Y25181042D01*
X29908307Y25181050D01*
X29908500Y25183498D01*
X29908500Y25616502D01*
X29906748Y25638767D01*
X29906067Y25647421D01*
X29906066Y25647426D01*
X29905562Y25653831D01*
X29859145Y25813601D01*
X29808678Y25898936D01*
X29778493Y25949976D01*
X29778492Y25949977D01*
X29774453Y25956807D01*
X29771513Y25959747D01*
X29746180Y26024266D01*
X29760079Y26093889D01*
X29772126Y26112636D01*
X29778090Y26120324D01*
X29854648Y26249779D01*
X29860893Y26264210D01*
X29899939Y26398605D01*
X29899899Y26412706D01*
X29892630Y26416000D01*
X26963122Y26416000D01*
X26949591Y26412027D01*
X26948456Y26404129D01*
X26989107Y26264210D01*
X26995352Y26249779D01*
X27071911Y26120323D01*
X27077871Y26112640D01*
X27103820Y26046556D01*
X27089922Y25976933D01*
X27079579Y25960839D01*
X27075547Y25956807D01*
X26990855Y25813601D01*
X26944438Y25653831D01*
X26943934Y25647426D01*
X26943933Y25647421D01*
X26943252Y25638767D01*
X26941500Y25616502D01*
X26941500Y25349595D01*
X26921498Y25281474D01*
X26904595Y25260500D01*
X26277747Y24633652D01*
X26269461Y24626112D01*
X26262982Y24622000D01*
X26257557Y24616223D01*
X26216357Y24572349D01*
X26213602Y24569507D01*
X26193865Y24549770D01*
X26191385Y24546573D01*
X26183682Y24537553D01*
X26153414Y24505321D01*
X26149595Y24498375D01*
X26149593Y24498372D01*
X26143652Y24487566D01*
X26132801Y24471047D01*
X26120386Y24455041D01*
X26117241Y24447772D01*
X26117238Y24447768D01*
X26102826Y24414463D01*
X26097609Y24403813D01*
X26076305Y24365060D01*
X26074334Y24357385D01*
X26074334Y24357384D01*
X26071267Y24345438D01*
X26064863Y24326734D01*
X26056819Y24308145D01*
X26055580Y24300322D01*
X26055577Y24300312D01*
X26049901Y24264476D01*
X26047495Y24252856D01*
X26036500Y24210030D01*
X26036500Y24189776D01*
X26034949Y24170066D01*
X26031780Y24150057D01*
X26032526Y24142165D01*
X26035941Y24106039D01*
X26036500Y24094181D01*
X26036500Y23764782D01*
X26016498Y23696661D01*
X25962842Y23650168D01*
X25892568Y23640064D01*
X25857270Y23652282D01*
X25856752Y23651118D01*
X25688319Y23726109D01*
X25688318Y23726109D01*
X25682288Y23728794D01*
X25569721Y23752721D01*
X25501944Y23767128D01*
X25501939Y23767128D01*
X25495487Y23768500D01*
X25304513Y23768500D01*
X25298061Y23767128D01*
X25298056Y23767128D01*
X25124170Y23730167D01*
X25124167Y23730166D01*
X25117712Y23728794D01*
X25115247Y23727697D01*
X25045728Y23725709D01*
X24984929Y23762369D01*
X24953602Y23826081D01*
X24953807Y23870127D01*
X24955562Y23876169D01*
X24958500Y23913498D01*
X24958500Y24346502D01*
X24957644Y24357384D01*
X24956067Y24377421D01*
X24956066Y24377426D01*
X24955562Y24383831D01*
X24920266Y24505321D01*
X24911357Y24535988D01*
X24911356Y24535990D01*
X24909145Y24543601D01*
X24824453Y24686807D01*
X24821771Y24689489D01*
X24796498Y24753861D01*
X24810400Y24823484D01*
X24820572Y24839312D01*
X24824453Y24843193D01*
X24909145Y24986399D01*
X24912799Y24998974D01*
X24943530Y25104754D01*
X24955562Y25146169D01*
X24956300Y25155539D01*
X24958307Y25181042D01*
X24958307Y25181050D01*
X24958500Y25183498D01*
X24958500Y25616502D01*
X24956748Y25638767D01*
X24956067Y25647421D01*
X24956066Y25647426D01*
X24955562Y25653831D01*
X24909145Y25813601D01*
X24824453Y25956807D01*
X24821771Y25959489D01*
X24796498Y26023861D01*
X24810400Y26093484D01*
X24820572Y26109312D01*
X24824453Y26113193D01*
X24909145Y26256399D01*
X24911415Y26264210D01*
X24940896Y26365687D01*
X24955562Y26416169D01*
X24956586Y26429173D01*
X24958307Y26451042D01*
X24958307Y26451050D01*
X24958500Y26453498D01*
X24958500Y26886502D01*
X24957611Y26897798D01*
X24956067Y26917421D01*
X24956066Y26917426D01*
X24955562Y26923831D01*
X24950459Y26941395D01*
X26950061Y26941395D01*
X26950101Y26927294D01*
X26957370Y26924000D01*
X28152885Y26924000D01*
X28168124Y26928475D01*
X28169329Y26929865D01*
X28171000Y26937548D01*
X28171000Y26942115D01*
X28679000Y26942115D01*
X28683475Y26926876D01*
X28684865Y26925671D01*
X28692548Y26924000D01*
X29886878Y26924000D01*
X29900409Y26927973D01*
X29901544Y26935871D01*
X29860893Y27075790D01*
X29854648Y27090221D01*
X29778089Y27219678D01*
X29768449Y27232104D01*
X29662104Y27338449D01*
X29649678Y27348089D01*
X29520221Y27424648D01*
X29505790Y27430893D01*
X29359935Y27473269D01*
X29347333Y27475570D01*
X29318916Y27477807D01*
X29313986Y27478000D01*
X28697115Y27478000D01*
X28681876Y27473525D01*
X28680671Y27472135D01*
X28679000Y27464452D01*
X28679000Y26942115D01*
X28171000Y26942115D01*
X28171000Y27459884D01*
X28166525Y27475123D01*
X28165135Y27476328D01*
X28157452Y27477999D01*
X27536017Y27477999D01*
X27531080Y27477805D01*
X27502664Y27475570D01*
X27490069Y27473270D01*
X27344210Y27430893D01*
X27329779Y27424648D01*
X27200322Y27348089D01*
X27187896Y27338449D01*
X27081551Y27232104D01*
X27071911Y27219678D01*
X26995352Y27090221D01*
X26989107Y27075790D01*
X26950061Y26941395D01*
X24950459Y26941395D01*
X24921012Y27042753D01*
X24911357Y27075988D01*
X24911356Y27075990D01*
X24909145Y27083601D01*
X24884671Y27124984D01*
X24828491Y27219980D01*
X24828489Y27219983D01*
X24824453Y27226807D01*
X24706807Y27344453D01*
X24699983Y27348489D01*
X24699980Y27348491D01*
X24570427Y27425108D01*
X24570428Y27425108D01*
X24563601Y27429145D01*
X24555990Y27431356D01*
X24555988Y27431357D01*
X24503769Y27446528D01*
X24403831Y27475562D01*
X24397426Y27476066D01*
X24397421Y27476067D01*
X24368958Y27478307D01*
X24368950Y27478307D01*
X24366502Y27478500D01*
X24254500Y27478500D01*
X24186379Y27498502D01*
X24139886Y27552158D01*
X24128500Y27604500D01*
X24128500Y27646621D01*
X24148502Y27714742D01*
X24174894Y27743884D01*
X24178713Y27746248D01*
X24299552Y27867298D01*
X24389302Y28012899D01*
X24443149Y28175243D01*
X24453500Y28276268D01*
X24453500Y28873732D01*
X24442887Y28976019D01*
X24388756Y29138268D01*
X24298752Y29283713D01*
X24177702Y29404552D01*
X24175330Y29406014D01*
X24135345Y29462412D01*
X24128500Y29503376D01*
X24128500Y30165406D01*
X24148502Y30233527D01*
X24165405Y30254501D01*
X25392938Y31482034D01*
X26598257Y31482034D01*
X26628565Y31347554D01*
X26631645Y31337725D01*
X26711770Y31140397D01*
X26716413Y31131206D01*
X26827694Y30949612D01*
X26833777Y30941301D01*
X26973213Y30780333D01*
X26980580Y30773117D01*
X27144434Y30637084D01*
X27152881Y30631169D01*
X27336756Y30523721D01*
X27346042Y30519271D01*
X27545001Y30443297D01*
X27554899Y30440421D01*
X27658250Y30419394D01*
X27672299Y30420590D01*
X27676000Y30430935D01*
X27676000Y31477885D01*
X27671525Y31493124D01*
X27670135Y31494329D01*
X27662452Y31496000D01*
X26613225Y31496000D01*
X26599694Y31492027D01*
X26598257Y31482034D01*
X25392938Y31482034D01*
X26676304Y32765399D01*
X26738616Y32799425D01*
X26809432Y32794360D01*
G37*
G04 #@! TD.AperFunction*
M02*
